<?xml version="1.0" encoding="utf-8"?>
<!-- Generator: Adobe Illustrator 15.0.2, SVG Export Plug-In . SVG Version: 6.00 Build 0)  -->
<!DOCTYPE svg PUBLIC "-//W3C//DTD SVG 1.1//EN" "http://www.w3.org/Graphics/SVG/1.1/DTD/svg11.dtd">
<svg version="1.1"
	 id="Layer_1" xmlns:svg="http://www.w3.org/2000/svg" xmlns:dc="http://purl.org/dc/elements/1.1/" xmlns:cc="http://creativecommons.org/ns#" xmlns:rdf="http://www.w3.org/1999/02/22-rdf-syntax-ns#"
	 xmlns="http://www.w3.org/2000/svg" xmlns:xlink="http://www.w3.org/1999/xlink" x="0px" y="0px" width="595.279px"
	 height="532.764px" viewBox="0 0 595.279 532.764" enable-background="new 0 0 595.279 532.764" xml:space="preserve">
<g id="g3" transform="translate(-1.77557e-5,-154.569)" display="none">
	<g id="g5" display="inline">
		<path id="path7" d="M448.3,459.3c18.25-12.097,36.508-24.198,54.76-36.301c-9.396-23.121-17.496-47.164-26.896-70.304
			c-17.711,13.525-35.413,27.044-53.129,40.563C431.864,414.992,439.466,437.578,448.3,459.3L448.3,459.3z"/>
		<path id="path9" d="M393.533,495.588c8.244,20.328,17.625,39.848,30.383,56.968c18.959-10.786,37.896-21.572,56.855-32.365
			c-13.632-18.3-23.662-39.17-32.472-60.891C430.035,471.395,411.783,483.498,393.533,495.588L393.533,495.588z"/>
		<path id="path11" d="M537.619,487.825c-18.953,10.786-37.895,21.573-56.853,32.371c13.631,18.287,30.883,34.016,54.152,45.45
			c20.118-9.815,40.245-19.627,60.36-29.431C570.505,524.036,552.151,507.302,537.619,487.825L537.619,487.825z"/>
		<path id="path13" d="M423.916,552.555c-18.952,10.793-37.907,21.579-56.866,32.372c-11.871-15.938-20.599-34.116-28.287-53.034
			c18.25-12.106,36.524-24.192,54.771-36.306c-8.258-20.323-15.383-41.449-23.639-61.772c-17.711,13.52-35.414,27.038-53.123,40.558
			c-7.686-18.931-16.412-37.099-28.294-53.046c17.013-14.822,34.026-29.65,51.04-44.475c-12.764-17.12-28.896-31.823-50.665-42.525
			c15.841-15.806,31.692-31.604,47.552-47.414c23.256,11.44,40.502,27.155,54.142,45.456c17.012-14.829,34.024-29.651,51.038-44.485
			c-14.514-19.472-32.87-36.205-57.653-48.379l-19.312,0.167c-15.846,15.811-31.69,31.621-47.545,47.426
			c-15.846,15.805-31.697,31.609-47.538,47.414c-15.847,15.799-31.699,31.609-47.539,47.414
			c20.257,9.959,35.281,23.649,47.157,39.58c11.883,15.93,20.608,34.108,28.293,53.034c7.679,18.924,14.307,38.598,21.989,57.516
			c7.686,18.936,16.418,37.098,28.295,53.033c11.875,15.936,26.896,29.627,47.164,39.574l19.322-0.173
			c20.112-9.805,40.233-19.62,60.338-29.426C452.806,584.385,436.666,569.67,423.916,552.555L423.916,552.555z"/>
		<path id="path15" d="M390.552,332.374c-17.002,14.828-34.027,29.649-51.027,44.484c12.75,17.114,22.125,36.64,30.377,56.956
			c17.721-13.519,35.424-27.038,53.142-40.551C414.226,371.531,404.194,350.667,390.552,332.374z"/>
	</g>
	<path id="path17" display="inline" d="M8.37,555.859c5.981,5.978,12.09,9.566,13.655,8.014l332.048-332.054
		c1.564-1.554-2.024-7.68-8.014-13.655c-5.978-5.978-12.084-9.561-13.644-8L0.369,542.21C-1.196,543.758,2.387,549.883,8.37,555.859
		z"/>
</g>
<g id="g19" transform="translate(-1.77557e-5,-154.569)" display="none">
	<path id="path21" display="inline" d="M571.069,362.215h-23.496c-6.957-38.99-21.947-70.737-48.52-70.737H53.367
		C13.977,291.477,0,361.22,0,420.945c0,59.726,13.977,129.469,53.367,129.469h445.679c26.579,0,41.562-31.746,48.52-70.743h23.496
		c17.877,0,24.211-31.633,24.211-58.726C595.28,393.854,588.946,362.215,571.069,362.215L571.069,362.215z M26.038,357.637
		c4.173-19.233,10.179-33.89,17.204-41.17h0.148h1.506h464.128h0.148c7.028,7.28,13.03,21.93,17.209,41.17H26.038z M551.324,392.222
		c-0.481-6.279-1.149-12.53-1.977-18.668h26.246h0.063c3.191,3.298,5.906,9.947,7.8,18.668H551.324z"/>
</g>
<g id="g23" transform="translate(-1.77557e-5,-154.569)" display="none">
	<path id="path25" display="inline" d="M588.987,559.479c3.453,0,6.287-2.834,6.287-6.286v-25.114c0-3.453-2.834-6.28-6.287-6.28
		H169.071c-4.19,9.257-13.459,15.732-24.28,15.732c-10.816,0-20.091-6.477-24.282-15.732H99.257l-3.679,3.679
		c-20.823,20.817-32.288,48.491-32.288,77.94c0,29.448,11.471,57.141,32.288,77.951l3.679,3.686h20.805
		c3.953-9.805,13.514-16.745,24.729-16.745c11.221,0,20.78,6.94,24.728,16.745h419.48c3.441,0,6.281-2.834,6.281-6.286v-25.121
		c0-3.445-2.84-6.279-6.281-6.279h-25.834c-7.94-13.126-12.196-28.217-12.196-43.962c0-15.732,4.256-30.817,12.196-43.949h25.822
		V559.479L588.987,559.479z M140.105,647.389h-24.316c-9.608-12.565-14.812-27.871-14.812-43.961
		c0-16.079,5.203-31.377,14.816-43.949h24.311h394.91c-2.924,6.738-5.18,13.757-6.729,20.983H365.651
		c-5.197,0-9.418,4.221-9.418,9.417c0,5.197,4.221,9.417,9.418,9.417h160.416c-0.049,1.376-0.215,2.745-0.215,4.12
		c0,15.388,3.203,30.264,9.162,43.955h-394.91L140.105,647.389L140.105,647.389L140.105,647.389z"/>
	<path id="path27" display="inline" d="M588.987,194.507c3.453,0,6.287-2.834,6.287-6.286v-25.109c0-3.451-2.834-6.278-6.287-6.278
		H169.071c-4.19,9.256-13.459,15.727-24.28,15.727c-10.816,0-20.091-6.471-24.282-15.727H99.257l-3.673,3.679
		c-20.817,20.822-32.288,48.497-32.288,77.951c0,29.442,11.471,57.136,32.288,77.952l3.679,3.679h20.805
		c3.953-9.804,13.514-16.745,24.729-16.745c11.221,0,20.781,6.941,24.728,16.745h419.481c3.44,0,6.28-2.833,6.28-6.286v-25.114
		c0-3.453-2.84-6.279-6.28-6.279h-25.834c-7.941-13.133-12.197-28.211-12.197-43.956c0-15.739,4.256-30.829,12.197-43.955h25.815
		V194.507L588.987,194.507z M140.105,282.418h-24.316c-9.608-12.572-14.812-27.871-14.812-43.956
		c0-16.09,5.203-31.377,14.816-43.955h24.311h394.91c-2.924,6.727-5.18,13.763-6.729,20.982H365.651
		c-5.197,0-9.418,4.216-9.418,9.418s4.221,9.417,9.418,9.417h160.416c-0.049,1.375-0.215,2.738-0.215,4.119
		c0,15.389,3.203,30.259,9.162,43.962L140.105,282.418L140.105,282.418L140.105,282.418z"/>
	<path id="path29" display="inline" d="M499.873,464.913c-7.94-13.126-12.196-28.218-12.196-43.956
		c0-15.745,4.256-30.829,12.196-43.955h25.837c3.452,0,6.278-2.834,6.278-6.286v-25.109c0-3.452-2.826-6.286-6.278-6.286H106.233
		c-3.945,9.8-13.513,16.739-24.728,16.739c-11.209,0-20.775-6.939-24.722-16.739H35.973L32.294,343
		C11.471,363.816,0,391.509,0,420.945c0,29.442,11.471,57.143,32.294,77.958l3.679,3.673h21.251
		c4.191-9.263,13.459-15.732,24.282-15.732c10.815,0,20.09,6.471,24.281,15.732H525.71c3.452,0,6.284-2.826,6.284-6.279v-25.121
		c0-3.452-2.832-6.286-6.284-6.286h-25.837V464.913L499.873,464.913L499.873,464.913z M471.718,377.008
		c-5.959,13.69-9.162,28.566-9.162,43.949c0,1.388,0.168,2.757,0.215,4.126H302.354c-5.203,0-9.417,4.221-9.417,9.417
		c0,5.203,4.215,9.417,9.417,9.417h162.637c1.547,7.232,3.797,14.264,6.728,20.989H76.803H52.492
		c-9.614-12.571-14.816-27.864-14.816-43.956c0-16.09,5.203-31.383,14.811-43.954h24.312L471.718,377.008L471.718,377.008
		L471.718,377.008z"/>
</g>
<g id="g31" transform="translate(-1.77557e-5,-154.569)" display="none">
	<path id="path33" display="inline" d="M505.416,383.955c-7.633-11.751-19.342-19.813-32.967-22.71
		c-3.571-0.758-7.215-1.139-10.84-1.139c-8.037,0-15.729,1.889-22.639,5.232c0.977-11.506-1.834-22.973-8.258-32.859
		c-7.632-11.75-19.341-19.815-32.966-22.71c-3.565-0.756-7.209-1.143-10.836-1.143c-6.856,0-13.459,1.398-19.555,3.875
		l26.783-125.99c2.893-13.626,0.291-27.604-7.34-39.349c-7.634-11.745-19.343-19.812-32.968-22.704
		c-13.633-2.898-27.604-0.285-39.35,7.34c-11.744,7.632-19.815,19.341-22.709,32.967L238.33,416.189L184.894,164.76
		c-2.893-13.626-10.965-25.335-22.71-32.967c-11.751-7.631-25.733-10.232-39.354-7.34c-13.626,2.894-25.329,10.959-32.968,22.71
		c-7.631,11.751-10.232,25.723-7.34,39.349l57.945,272.62l-1.185,21.454c-16.562,7.548-28.795,23.549-30.878,42.116
		c-0.029,0.236-0.06,0.48-0.082,0.726c-0.155,1.613-0.263,3.227-0.263,4.863c0,0.596,0.036,1.257,0.078,1.959
		c0.006,0.173,0.023,0.362,0.036,0.542c0.119,1.522,0.321,3.278,0.613,5.227c0.012,0.112,0.029,0.22,0.047,0.339
		c2.214,14.816,8.69,40.188,12.787,55.521c8.786,33.229,19.191,68.547,22.501,79.667c8.357,26.377,36.573,47.026,64.243,47.026
		H393.98c27.234,0,56.879-19.645,67.494-44.729l13.209-31.217c9.328-22.063,16.924-59.498,16.924-83.446v-36.372l21.156-99.519
		C515.649,409.677,513.048,395.705,505.416,383.955L505.416,383.955z M393.121,331.576c16.205,3.44,26.574,19.425,23.134,35.621
		L391.319,484.51c-8.209-5.37-18.002-8.524-28.531-8.524H331.72l25.774-121.282c2.937-13.78,15.306-23.787,29.418-23.787
		C388.985,330.921,391.074,331.141,393.121,331.576L393.121,331.576z M104.329,181.886c-1.655-7.804-0.155-15.822,4.227-22.573
		c4.381-6.75,11.103-11.394,18.906-13.048c7.81-1.667,15.822-0.155,22.579,4.232c6.757,4.387,11.394,11.096,13.049,18.899
		l59.271,278.864c1.096,5.148,5.638,8.828,10.899,8.828h10.138c5.263,0,9.805-3.679,10.906-8.828l59.276-278.864
		c3.441-16.198,19.441-26.586,35.621-23.133c16.205,3.44,26.58,19.424,23.134,35.621L338.498,341.07
		c-1.188,2.876-2.143,5.883-2.809,9.008l-26.764,125.907H161.862l0.947-17.091c0.054-0.988-0.023-1.971-0.226-2.935L104.329,181.886
		z M454.151,633.954l-13.209,31.217c-7.139,16.87-28.646,31.127-46.969,31.127H208.36c-17.894,0-37.586-14.411-42.932-31.281
		c-8.548-28.746-20.246-70.111-27.734-100.204c-4.048-16.453-7.346-31.621-7.346-36.508c0-15.716,14.316-30.032,30.038-30.032
		h202.396c16.566,0,30.037,13.479,30.037,30.032c0,16.566-13.471,30.043-30.037,30.043H242.743c-2.203,0-4.353,0.644-6.186,1.869
		l-30.883,20.585c-5.125,3.411-6.506,10.328-3.096,15.454c3.417,5.119,10.321,6.512,15.454,3.095l28.072-18.715h116.67
		c17.197,0,32.424-8.376,41.973-21.204c6.423,5.548,14.244,9.644,23.115,11.536c3.57,0.756,7.222,1.138,10.84,1.138
		c11.257,0,21.847-3.686,30.543-9.953C468.669,583.368,461.996,615.399,454.151,633.954L454.151,633.954z M490.949,418.671
		l-22.815,107.354c-2.922,13.78-15.299,23.787-29.418,23.787c-2.072,0-4.162-0.22-6.203-0.654
		c-7.656-1.625-13.99-6.077-18.203-12.013c0.494-2.882,0.809-5.822,0.809-8.84c0-7.459-1.596-14.537-4.422-20.966l21.5-101.156
		c2.931-13.781,15.299-23.787,29.414-23.787c2.07,0,4.166,0.22,6.209,0.654C484.022,386.49,494.397,402.473,490.949,418.671z"/>
</g>
<g id="g35" transform="translate(-1.77557e-5,-154.569)" display="none">
	<path id="path37" display="inline" d="M540.317,361.507h54.963v-52.54h-55.059c-2.904-12.459-7.84-24.138-14.424-34.681
		l38.969-38.962l-37.152-37.146l-39.002,39.003c-10.537-6.548-22.199-11.453-34.646-14.347v-55.152h-52.527v55.152
		c-12.453,2.888-24.121,7.799-34.662,14.353l-38.985-38.991l-37.14,37.151l38.949,38.949c-6.59,10.549-11.525,22.233-14.437,34.699
		h-55.01v52.539h54.938c2.895,12.501,7.811,24.229,14.399,34.813l-38.823,38.824l37.151,37.146l38.799-38.807
		c10.584,6.613,22.324,11.561,34.849,14.478v54.825h52.521v-54.837c12.525-2.917,24.258-7.87,34.849-14.489l38.801,38.813
		l37.151-37.146l-38.848-38.849C532.5,385.717,537.425,374.002,540.317,361.507L540.317,361.507z M427.707,387.943
		c-29.02,0-52.538-23.524-52.538-52.526c0-29.021,23.52-52.54,52.538-52.54c29.015,0,52.521,23.52,52.521,52.54
		C480.229,364.411,456.722,387.943,427.707,387.943z"/>
	<path id="path39" display="inline" d="M280.163,532.893h54.96v-52.539h-55.057c-2.904-12.459-7.846-24.133-14.424-34.675
		l38.967-38.962l-37.145-37.146l-39.009,39.003c-10.537-6.548-22.198-11.452-34.646-14.346v-55.153h-52.526v55.153
		c-12.459,2.887-24.121,7.798-34.663,14.353l-38.991-38.99l-37.141,37.15l38.949,38.943c-6.59,10.548-11.524,22.233-14.436,34.699H0
		v52.533h54.938c2.894,12.507,7.816,24.228,14.4,34.812l-38.824,38.836l37.151,37.135l38.8-38.794
		c10.59,6.606,22.323,11.554,34.854,14.465v54.831h52.527v-54.844c12.52-2.91,24.258-7.856,34.848-14.482l38.801,38.807
		l37.145-37.14l-38.847-38.849C272.353,557.109,277.275,545.394,280.163,532.893z M167.553,559.336
		c-29.02,0-52.539-23.525-52.539-52.533c0-29.021,23.525-52.533,52.539-52.533s52.521,23.514,52.521,52.533
		C220.075,535.81,196.567,559.336,167.553,559.336z"/>
</g>
<g id="g41" transform="translate(-1.77557e-5,-154.569)" display="none">
	<g id="g43" display="inline">
		<polygon id="polygon45" points="85.982,678.797 114.925,661.355 361.294,414.986 341.612,395.289 95.227,641.658 77.768,670.582 
					"/>
	</g>
	<g id="g47" display="inline">
		<path id="path49" d="M580.647,175.934c-18.727-18.716-48.057-19.859-66.777-1.148L369.828,318.825
			c-1.653,1.667-1.653,4.341,0,6.014c4.888,4.897,4.888,12.81,0,17.697c-4.868,4.881-12.805,4.898-17.703,0.006
			c-1.653-1.667-4.34-1.667-6.012-0.006l-16.592,16.597c-1.363,1.387-1.535,3.452-0.607,5.077l63.451,63.463
			c1.638,0.929,3.709,0.763,5.09-0.613l16.593-16.59c1.647-1.661,1.637-4.346-0.021-6.013c-4.887-4.889-4.887-12.828,0-17.717
			c4.877-4.887,12.822-4.868,17.711,0c1.644,1.674,4.34,1.674,6.006,0l144.039-144.016
			C600.524,223.991,599.375,194.668,580.647,175.934L580.647,175.934z"/>
	</g>
	<path id="path51" display="inline" d="M516.565,602.148L347.774,445.351l-59.052,59.046l162.017,162.148
		c17.877,18.597,46.51,18.597,65.105,0.721C533.739,648.659,534.448,620.037,516.565,602.148z M500.101,651.497
		c-9.287,10.037-24.316,8.607-34.348-0.714c-8.572-8.578-8.572-24.307,0-33.604c10.03-9.322,25.061-9.322,34.348,0
		C509.405,626.477,509.405,642.931,500.101,651.497z"/>
	<path id="path53" display="inline" d="M252.22,467.847l57.677-57.671L198.24,306.455c-16.442-17.876-20.758-25.031-16.442-45.796
		c5.018-22.899,1.006-64.927-37.931-87.32c-44.76-25.746-90.174-2.145-90.174-2.145l-3.571,5.733c0,0,40.08,26.478,45.086,29.335
		c5.721,3.59,22.889,22.895,2.131,53.677c-20.049,30.781-42.211,20.745-48.652,15.751c-5.006-2.869-45.086-28.64-45.086-28.64
		l-3.565,5.728c0,0-2.875,53.67,41.479,82.297c20.751,13.584,42.956,13.584,58.701,7.87c15.745-5.007,27.174,0.727,46.509,19.322
		L252.22,467.847z"/>
</g>
<g id="g55" transform="translate(-1.77557e-5,-154.569)" display="none">
	<g id="g57" display="inline">
		<polygon id="polygon59" points="258.804,414.921 406.731,329.552 406.694,256.411 44.604,465.288 489.278,718.586 
			550.485,683.286 437.16,618.209 171.185,465.49 180.215,460.281 258.649,414.838 		"/>
		<polygon id="polygon61" points="481.938,123.305 38.467,379.115 38.503,454.37 419.185,234.789 419.231,336.76 419.31,506.356 
			482.136,542.138 		"/>
		<polygon id="polygon63" points="405.783,513.023 258.846,429.315 196.216,465.467 556.813,672.51 556.569,159.063 
			494.433,123.388 494.636,563.646 419.321,520.738 419.315,520.78 		"/>
	</g>
</g>
<g id="g65" transform="translate(-1.77557e-5,-154.569)" display="none">
	<path id="path67" display="inline" d="M513.173,211.425l-88.125-88.119H82.107v564.486c0,17.549,22.062,30.794,51.313,30.794
		c29.258,0,51.318-13.245,51.318-30.794l0,0V240.456l61.582,61.582v385.76l0,0c0,17.549,22.062,30.794,51.319,30.794
		c29.251,0,51.312-13.245,51.312-30.794V205.412H164.214v457.461c-8.471-3.696-19.025-5.863-30.794-5.863
		c-11.757,0-22.317,2.167-30.788,5.863V143.831h307.907v543.961c0,17.549,22.058,30.793,51.314,30.793
		c29.252,0,51.318-13.244,51.318-30.793l0,0L513.173,211.425L513.173,211.425z M328.429,662.873
		c-8.474-3.696-19.031-5.863-30.789-5.863c-11.769,0-22.323,2.167-30.794,5.863V308.045h61.583V662.873z M297.64,698.06
		c-19.871,0-30.794-7.715-30.794-10.269s10.923-10.263,30.794-10.263s30.789,7.709,30.789,10.263S317.511,698.06,297.64,698.06z
		 M328.429,287.519h-67.595l-61.576-61.582h129.171V287.519L328.429,287.519z M133.42,677.536c19.871,0,30.794,7.709,30.794,10.263
		s-10.923,10.269-30.794,10.269c-19.87,0-30.788-7.715-30.788-10.269S113.55,677.536,133.42,677.536z M492.647,219.926v442.941
		c-8.471-3.696-19.031-5.863-30.793-5.863c-11.764,0-22.324,2.167-30.789,5.863V158.344L492.647,219.926z M461.854,698.06
		c-19.871,0-30.789-7.715-30.789-10.269s10.918-10.263,30.789-10.263c19.863,0,30.793,7.709,30.793,10.263
		S481.718,698.06,461.854,698.06z"/>
</g>
<g id="g69" transform="translate(-1.77557e-5,-154.569)" display="none">
	<path id="path71" display="inline" d="M472.569,277.828V134.497h-0.012l-6.459-11.191H453.18l-6.471,11.191l0,0v11.096
		c-99.228,7.792-198.919,7.792-298.146,0v-11.096l0,0l-6.465-11.191h-12.917l-6.459,11.191h-0.012v143.331H86.518v20.113h36.193
		v89.072l156.653,156.647l-58.605,58.6h-58.831v20.114h38.723l-74.594,74.595v0.006l-3.346,12.473l9.144,9.138l12.478-3.346v0.012
		l92.881-92.876h120.865l92.882,92.876v-0.012l12.465,3.346l9.145-9.138l-3.346-12.473v-0.006l-74.596-74.595h38.719v-20.114
		h-58.832l-58.601-58.6L472.57,387.014v-89.072h36.193v-20.113H472.569L472.569,277.828z M446.71,278.078v19.863v63.338
		c-96.9,31.401-201.24,31.401-298.146,0v-63.338v-19.863C247.791,285.876,347.483,285.876,446.71,278.078z M337.957,602.261h-80.636
		l40.318-40.318L337.957,602.261z M297.64,525.387l-39.443-39.449h78.893L297.64,525.387z M246.702,474.443l-81.773-81.772
		c86.738,24.751,178.686,24.751,265.424,0l-81.775,81.772H246.702L246.702,474.443z"/>
</g>
<g id="g73" transform="translate(-1.77557e-5,-154.569)" display="none">
	<path id="path75" display="inline" d="M581.921,624.074L423.679,465.83c22.162-34.657,35.217-75.674,35.217-119.766
		c0-122.83-99.93-222.76-222.766-222.76c-122.83,0-222.771,99.93-222.771,222.76S113.3,568.86,236.129,568.86
		c29.997,0,58.576-6.042,84.715-16.84l166.569,166.565L581.921,624.074L581.921,624.074z M113.609,346.065
		c0-67.553,54.969-122.509,122.521-122.509c67.553,0,122.508,54.956,122.508,122.509c0,67.588-54.955,122.544-122.508,122.544
		C168.577,468.609,113.609,413.653,113.609,346.065z"/>
</g>
<g id="g77" transform="translate(-1.77557e-5,-154.569)" display="none">
	<path id="path79" display="inline" d="M576.183,389.157L329.435,142.402c-8.49-8.465-19.781-13.138-31.801-13.138
		c-12.013,0-23.305,4.673-31.776,13.138L19.103,389.157c-8.489,8.482-13.149,19.765-13.149,31.807
		c0,12.001,4.66,23.306,13.149,31.765l246.75,246.757c8.478,8.487,19.77,13.144,31.776,13.144c12.02,0,23.327-4.655,31.801-13.144
		l246.754-246.751C593.714,435.22,593.714,406.688,576.183,389.157z M224.676,547.342c-3.363,3.298-6.53,6.393-9.536,9.387
		l-43.051-43.05c3.273-3.257,6.59-6.513,10.084-9.906c30.639-29.889,67.344-65.693,80.226-137.343
		c-3.125,0.738-6.09,1.577-8.846,2.518l-11.524,3.972c-24.222,8.363-32.156-2.061-17.649-23.162l46.813-68.112l0.013-0.018
		l26.371-38.378l26.363,38.4l46.809,68.112c14.5,21.085,6.57,31.526-17.655,23.162l-11.502-3.971
		c-2.757-0.94-5.732-1.779-8.847-2.519c12.884,71.648,49.582,107.448,80.238,137.343c3.494,3.395,6.812,6.649,10.062,9.906
		l-43.033,43.05c-3.019-2.994-6.191-6.089-9.549-9.387c-22.543-21.984-51.402-50.117-72.897-93.632
		C276.085,497.224,247.231,525.357,224.676,547.342L224.676,547.342z"/>
</g>
<g id="g81" transform="translate(-1.77557e-5,-154.569)">
	<g id="g83">
		<path id="path85" fill="#CE2030" d="M475.265,595.238h60.854v-26.3l59.16,59.194l-59.16,59.2v-26.299H392.302
			C424.149,644.736,452.276,622.282,475.265,595.238z"/>
		<path id="path87" fill="#CE2030" d="M245.172,248.409c-84.583,11.983-149.768,84.774-149.768,172.555
			c0,60.207,30.699,113.378,77.215,144.713H78.297C47.8,525.4,29.615,475.259,29.615,420.963
			c0-122.907,92.898-224.498,212.104-238.393l-31.24,31.205L245.172,248.409z"/>
		<path id="path89" fill="#0C88C4" d="M32.931,628.133l-32.865-32.89h269.65c96.079,0,174.309-78.167,174.309-174.274
			c0-86.023-62.676-157.642-144.692-171.744v23.752L240.1,213.782l59.23-59.213v28.204
			c118.455,14.64,210.479,115.824,210.479,238.19c0,132.373-107.709,240.071-240.094,240.071H0L32.931,628.133z"/>
	</g>
</g>
<g id="g91" transform="translate(-1.77557e-5,-154.569)" display="none">
	<g id="g93" display="inline">
		<path id="path95" d="M264.459,464.496l55.109,55.094v61.171h61.154l17.93,17.924v61.159h58.736v58.742h137.885V641.86
			L341.179,387.753c35.567-68.166,24.746-154.237-32.496-211.491c-70.605-70.606-185.097-70.606-255.727,0
			c-70.606,70.63-70.606,185.12,0,255.732C110.204,489.242,196.293,500.064,264.459,464.496L264.459,464.496z M107.824,231.135
			c22.388-22.354,58.641-22.354,81,0c22.389,22.376,22.389,58.641,0,80.993c-22.365,22.377-58.617,22.377-81,0
			C85.476,289.769,85.476,253.51,107.824,231.135z"/>
	</g>
</g>
<g id="g97" transform="translate(-1.77557e-5,-154.569)" display="none">
	<g id="g99" display="inline">
		<path id="path101" d="M297.646,261.809c-69.809,0-126.372,56.558-126.372,126.342c0,17.376,3.519,33.919,9.858,48.992l0,0
			l56.909,165.827h116.526l57.563-161.595C419.68,425.183,424,407.193,424,388.15C424.007,318.367,367.437,261.809,297.646,261.809z
			"/>
		<rect id="rect103" x="284.484" y="123.305" width="26.288" height="103.103"/>
		
			<rect id="rect105" x="138.42" y="190.567" transform="matrix(0.4999 0.8661 -0.8661 0.4999 271.4349 -62.6607)" width="103.11" height="26.277"/>
		
			<rect id="rect107" x="59.627" y="269.366" transform="matrix(-0.8659 -0.5002 0.5002 -0.8659 66.1305 582.7533)" width="103.1" height="26.293"/>
		<polygon id="polygon109" points="535.328,268.101 522.203,245.367 432.916,296.913 446.032,319.682 		"/>
		
			<rect id="rect111" x="392.15" y="152.147" transform="matrix(0.8663 0.4995 -0.4995 0.8663 155.92 -175.2104)" width="26.311" height="103.106"/>
		<rect id="rect113" x="242.362" y="618.691" width="103.121" height="22.829"/>
		<rect id="rect115" x="242.362" y="657.212" width="103.121" height="22.835"/>
		<rect id="rect117" x="259.75" y="695.751" width="68.332" height="22.835"/>
	</g>
</g>
<g id="g119" transform="translate(-1.77557e-5,-154.569)" display="none">
	<polygon id="polygon121" display="inline" points="222.534,263.404 115.216,263.404 222.534,156.088 	"/>
	<path id="path123" display="inline" d="M249.369,129.258v160.976H88.393v422.399h418.5V129.258H249.369z M438.78,629.669H156.493
		v-34.521H438.78V629.669z M438.78,532.626H156.493v-34.521H438.78V532.626L438.78,532.626z M438.78,433.017H156.493v-34.515H438.78
		V433.017L438.78,433.017z"/>
</g>
<g id="g125" transform="translate(-1.77557e-5,-154.569)" display="none">
	<g id="g127" display="inline">
		<path id="path129" d="M478.664,328.51c-91.27-54.998-153.547-68.458-179.231-58.367c-10.626,4.167-21.229,17.812-32.211,36.008
			c-11.412,18.883-19.638,47.539-17.055,59.867c1.518,7.203,21.216,54.2,132.621,116.348
			c72.548,40.449,130.136,50.725,140.207,47.354c10.244-3.381,24.275-10.994,43.246-37.508
			c17.537-24.526,23.086-52.29,23.086-62.922C589.326,418.701,552.537,373.025,478.664,328.51L478.664,328.51z M564.308,436.12
			c-10.232,18.21-84.119-9.066-129.592-34.099c-45.498-25.02-141.993-90.596-119.373-114.823
			c15.905-17.062,82.971,4.549,155.737,50.021C543.854,382.692,574.552,417.945,564.308,436.12L564.308,436.12z"/>
		<path id="path131" d="M289.764,442.048c-15.62,5.936-55.141,12.841-104.305,12.841c-54.772,0-145.79-12.841-145.79-50.021
			c0-43.152,134.337-60.82,194.103-54.851c0.571-4.268,1.988-10.519,1.988-10.519s-9.382-1.138-27.841-1.138
			c-135.01,0-179.912,38.359-189.293,52.289c-9.382,13.931-12.514,44.045-12.514,60.826s-3.631,50.694,23.317,80.166
			c30.401,33.24,98.9,43.193,154.893,43.193c55.985,0,96.626-4.548,154.32-31.275c3.332-7.721,3.404-16.043,3.404-19.312
			C342.054,492.396,307.677,448.06,289.764,442.048z"/>
	</g>
</g>
<g id="g133" transform="translate(-1.77557e-5,-154.569)" display="none">
	<path id="path135" display="inline" d="M538.603,335.903h-17.049l-61.021-101.715c-3.834-6.405-13.145-11.668-20.608-11.668
		H155.362c-7.507,0-16.799,5.27-20.639,11.668L73.708,335.903H56.659C25.484,335.903,0,361.429,0,392.597v15.948v141.748h56.659
		v69.076h85.083v-69.076h311.767v69.076h85.094v-69.076h56.678V408.546v-15.948C595.28,361.429,569.772,335.903,538.603,335.903
		L538.603,335.903z M159.583,254.016h276.113l57.685,96.097c-26.871,8.036-85.947,20.467-194.205,20.467
		c-108.888,0-169.398-12.717-197.055-20.877L159.583,254.016z M99.209,477.634c-23.46,0-42.551-19.024-42.551-42.503
		c0-23.483,19.091-42.539,42.551-42.539c23.501,0,42.539,19.049,42.539,42.539C141.748,458.609,122.711,477.634,99.209,477.634z
		 M396.849,483.92H198.413c-3.447,0-6.28-2.805-6.28-6.286c0-3.494,2.833-6.28,6.28-6.28h198.436c3.44,0,6.287,2.786,6.287,6.28
		C403.136,481.116,400.289,483.92,396.849,483.92z M396.849,455.585H198.413c-3.447,0-6.28-2.821-6.28-6.292
		c0-3.478,2.833-6.305,6.28-6.305h198.436c3.44,0,6.287,2.827,6.287,6.305C403.136,452.77,400.289,455.585,396.849,455.585z
		 M496.071,477.634c-23.524,0-42.557-19.024-42.557-42.503c0-23.483,19.031-42.539,42.557-42.539
		c23.5,0,42.537,19.049,42.537,42.539C538.603,458.609,519.571,477.634,496.071,477.634z"/>
</g>
<g id="g137" transform="translate(-1.77557e-5,-154.569)" display="none">
	<g id="g139" display="inline">
		<g id="g141">
			<path id="path143" d="M461.621,539.883V373.138c-9.856,0.869-20.43,1.66-31.717,2.363v175.923
				C441.323,547.99,451.937,544.127,461.621,539.883z"/>
		</g>
		<g id="g145">
			<path id="path147" d="M152.112,374.525v172.145c39.36,13.977,90.375,22.436,146.153,22.436c13.221,0,26.149-0.5,38.754-1.397
				V378.919c-12.639,0.195-25.557,0.303-38.754,0.303C243.285,379.222,192.626,377.466,152.112,374.525L152.112,374.525z"/>
		</g>
		<g id="g149">
			<g id="g151">
				<path id="path153" d="M106.549,353.536c44.318,5.708,115.788,9.179,191.715,9.179c75.076,0,146.07-3.404,190.447-9.007
					c3.245-27.126,15.848-45.188,32.937-46.099c-23.09-102.097-114.299-178.353-223.385-178.353
					c-109.138,0-200.383,76.333-223.414,178.507C91.262,309.473,103.358,327.159,106.549,353.536z M393.955,182.613
					c7.209-7.446,26.668-0.298,43.474,15.953c16.811,16.258,24.604,35.485,17.395,42.943c-7.196,7.44-26.668,0.292-43.483-15.965
					C394.533,209.288,386.746,190.06,393.955,182.613L393.955,182.613z"/>
			</g>
		</g>
		<g id="g155">
			<g id="g157">
				<path id="path159" d="M446.669,563.199c-30.859,10.531-68.298,18.009-109.371,20.967c-2.084,0.138-4.113,0.334-6.197,0.446
					c-1.478,0.096-2.978,0.132-4.441,0.209c-4.172,0.214-8.356,0.423-12.602,0.548c-0.221,0.006-0.439,0.006-0.648,0.018
					c-5.196,0.137-10.453,0.214-15.751,0.22c-5.298-0.006-10.554-0.083-15.75-0.22c-0.215-0.012-0.44-0.012-0.661-0.018
					c-4.25-0.125-8.43-0.334-12.603-0.548c-1.471-0.077-2.971-0.119-4.435-0.209c-2.089-0.118-4.125-0.31-6.203-0.446
					c-41.081-2.958-78.512-10.44-109.371-20.967c-23.811-8.304-43.842-18.648-59.093-30.572l-1.839-0.452
					c14.774,60.094,56.915,110.313,95.745,142.855c14.084,13.66,29.192,24.703,44.938,30.978c1.065,0.548,2.196,1.221,3.208,1.732
					c9.709,3.321,37.901,4.952,66.052,4.888c28.156,0.064,56.337-1.571,66.046-4.888c1.012-0.513,2.148-1.186,3.209-1.732
					c15.744-6.273,30.859-17.316,44.938-30.978c38.842-32.545,80.979-82.763,95.756-142.855l-1.853,0.452
					C490.498,544.555,470.468,554.901,446.669,563.199L446.669,563.199z M275.817,668.558c0,3.048-2.464,5.513-5.494,5.513
					c-3.029,0-5.5-2.465-5.5-5.513v-28.771c0-3.042,2.471-5.506,5.5-5.506c3.03,0,5.494,2.464,5.494,5.506V668.558z
					 M303.171,676.874c0,3.054-2.472,5.519-5.501,5.519c-3.036,0-5.5-2.465-5.5-5.519V637.7c0-3.03,2.47-5.501,5.5-5.501
					s5.501,2.471,5.501,5.501V676.874z M330.517,668.558c0,3.048-2.478,5.513-5.5,5.513c-3.035,0-5.5-2.465-5.5-5.513v-28.771
					c0-3.042,2.465-5.506,5.5-5.506c3.022,0,5.5,2.464,5.5,5.506V668.558z"/>
			</g>
		</g>
		<g id="g161">
			<g id="g163">
				<path id="path165" d="M522.978,323.944c-10.258,0-18.58,19.717-18.58,44.027c0,0.077,0.014,0.125,0.014,0.202
					c-4.452,0.702-9.383,1.369-14.592,2.018v154.523c21.443-14.354,33.859-31.282,33.859-49.45c0,0,17.883-91.238,17.883-107.293
					C541.556,343.654,533.228,323.944,522.978,323.944z M524.263,370.394c-1.988,0-3.603-4.62-3.603-10.322
					s1.613-10.315,3.603-10.315c2,0,3.612,4.619,3.612,10.315S526.263,370.394,524.263,370.394z"/>
			</g>
		</g>
		<g id="g167">
			<g id="g169">
				<path id="path171" d="M121.151,533.257V371.835c-11.417-1.186-21.639-2.472-30.27-3.853c0-0.006,0-0.006,0-0.006
					c0-24.312-8.322-44.027-18.579-44.027S53.73,343.666,53.73,367.977c0,18.691,19.126,107.293,19.126,107.293
					C72.856,497.171,90.935,517.298,121.151,533.257L121.151,533.257z M70.731,370.394c-1.987,0-3.606-4.62-3.606-10.322
					s1.619-10.315,3.606-10.315c1.988,0,3.614,4.619,3.614,10.315S72.719,370.394,70.731,370.394z"/>
			</g>
		</g>
	</g>
</g>
<g id="g173" transform="translate(-1.77557e-5,-154.569)" display="none">
	<g id="g175" display="inline">
		<path id="path177" d="M416.707,123.305H178.584c-21.931,0-39.682,17.745-39.682,39.688v515.912
			c0,21.94,17.745,39.688,39.682,39.688h238.111c21.937,0,39.683-17.746,39.683-39.688V162.993
			C456.39,141.051,438.644,123.305,416.707,123.305z M257.333,159.272h80.612c7.209,0,13.025,5.853,13.025,13.024
			c0,7.209-5.816,13.023-13.025,13.023h-80.612c-7.209,0-13.025-5.814-13.025-13.023
			C244.315,165.119,250.13,159.272,257.333,159.272z M297.646,681.339c-17.751,0-32.169-14.418-32.169-32.205
			c0-17.745,14.412-32.163,32.169-32.163s32.169,14.418,32.169,32.163C329.815,666.921,315.397,681.339,297.646,681.339z
			 M414.69,589.613H180.596V217.562h234.083v372.051H414.69L414.69,589.613z"/>
	</g>
</g>
<g id="g179" transform="translate(-1.77557e-5,-154.569)" display="none">
	<g id="g181" display="inline">
		<path id="path183" d="M431.048,141.991c-8.404-6.971-18.857-10.186-27.996-12.404c-17.758-4.328-86.138-6.28-104.453-6.28h-1.917
			c-18.316,0-86.685,1.952-104.448,6.28c-9.144,2.22-19.614,5.435-27.989,12.404c-10.167,8.437-15.316,20.835-15.316,36.901v485.707
			c0,32.705,26.216,42.128,37.467,44.67c12.417,2.779,41.527,9.316,110.056,9.316h2.381c68.527,0,97.638-6.537,110.062-9.316
			c11.25-2.542,37.473-11.966,37.473-44.67V178.892C446.358,162.832,441.21,150.427,431.048,141.991z M396.11,156.742
			c7.865,0,14.24,6.353,14.24,14.258c0,7.863-6.369,14.263-14.24,14.263c-7.869,0-14.25-6.404-14.25-14.263
			C381.86,163.099,388.282,156.742,396.11,156.742z M242.547,165.082h105.21c3.453,0,6.178,2.75,6.178,6.16
			c0,3.411-2.725,6.161-6.178,6.161h-105.21c-3.447,0-6.179-2.768-6.179-6.161C236.374,167.832,239.106,165.082,242.547,165.082
			L242.547,165.082z M320.992,684.844c-5.959,1.436-18.293,1.613-23.656,1.613c-0.637,0-1.173-0.019-1.578-0.019
			s-0.958,0.019-1.583,0.019c-5.339,0-17.698-0.173-23.662-1.613c-8.007-1.939-10.489-10.863-10.489-13.898
			c0-2.125,0-7.764,8.524-7.764H294.8h1.917h26.252c8.512,0,8.512,5.632,8.512,7.764
			C331.481,673.981,329.005,682.905,320.992,684.844L320.992,684.844z M408.563,635.942H185.096V206.977h223.443v428.972h0.023
			V635.942z"/>
	</g>
</g>
<g id="g185" transform="translate(-1.77557e-5,-154.569)" display="none">
	<path id="path187" display="inline" d="M404.498,295.169v131.259L273.228,295.169V448.43h-41.926V123.305h-54.95v325.118h-41.949
		V123.305H79.458v325.118H37.526v270.162h520.18V448.424h0.048L404.498,295.169z M533.257,515.964h-81.189v-43.092h81.189V515.964z
		 M322.022,540.383h81.209v43.116h-81.209V540.383z M273.186,583.505h-81.189v-43.116h81.184v43.116H273.186z M322.022,515.964
		v-43.092h81.209v43.092H322.022z M273.186,472.872v43.092h-81.189v-43.092H273.186z M143.153,472.872v43.092H61.975v-43.092
		H143.153L143.153,472.872z M61.975,540.383h81.185v43.116H61.975V540.383L61.975,540.383z M452.067,583.505v-43.116h81.189v43.116
		H452.067z"/>
</g>
<g id="g189" transform="translate(-1.77557e-5,-154.569)" display="none">
	<g id="g191" display="inline">
		<path id="path193" d="M77.16,409.915v308.671h440.959V409.915H77.16z M319.688,580.188v72.249h-44.104v-72.249
			c-13.108-7.667-22.049-21.703-22.049-37.983c0-24.329,19.722-44.094,44.109-44.094c24.33,0,44.091,19.765,44.091,44.094
			C341.737,558.478,332.778,572.521,319.688,580.188z"/>
		<path id="path195" d="M209.419,277.661c0.238-18.453-0.019-88.19,88.179-88.19c88.227,0,87.928,70.017,88.184,88.19v66.136h66.185
			v-66.159c0,0-0.041-154.332-154.326-154.332c-154.313,0-154.355,154.332-154.355,154.332v66.159h66.136L209.419,277.661
			L209.419,277.661z"/>
	</g>
</g>
</svg>
