<svg width="40" height="40" viewBox="0 0 40 40" fill="none" xmlns="http://www.w3.org/2000/svg">
<path d="M10 40.0002C9.66667 40.0002 9.25 39.6668 9.25 39.2502V22.3335C9.83333 22.8335 10.3333 23.2502 10.75 23.7502V37.8335L19.1667 32.1668C19.25 32.0835 19.4167 32.0835 19.5833 32.0835C19.75 32.0835 19.9167 32.1668 20.0833 32.2502L28.5 37.9168V23.7502C28.75 23.5002 29.6667 22.6668 29.8333 22.5002V39.1668C29.8333 39.5835 29.4167 39.9168 29.0833 39.9168C28.9167 39.9168 28.8333 39.8335 28.6667 39.7502L19.5 33.5002L10.3333 39.7502C10.25 39.9168 10.1667 40.0002 10 40.0002Z" fill="#0386C4"/>
<path d="M19.75 27.6667C17 27.6667 14.5 26.9167 12.25 25.5L9.08337 22.6667C7.00004 20.25 5.83337 17.0833 5.83337 13.8333C5.83337 6.16667 12 0 19.6667 0C27.3334 0 33.5834 6.25 33.6667 13.9167C33.6667 17.0833 32.5 20.1667 30.4167 22.75L27.25 25.5C25 26.9167 22.5 27.6667 19.75 27.6667ZM19.6667 1.5C12.9167 1.5 7.33337 7.08333 7.33337 13.8333C7.33337 20.5833 12.8334 26.1667 19.6667 26.1667C26.4167 26.1667 32 20.6667 32 13.8333C32 7 26.5 1.5 19.6667 1.5Z" fill="#CE152F"/>
</svg>
