<svg width="40" height="40" viewBox="0 0 40 40" fill="none" xmlns="http://www.w3.org/2000/svg">
<path d="M5.40005 40C5.10005 40 4.80005 39.7 4.80005 39.4V0.6C4.80005 0.3 5.10005 0 5.40005 0H10.3C14 0 16.9 0 19.2 0H22.7001C24.7001 0 26.4 0 26.8 0.1C28.8 1.7 30.4 3 31.6 3.9C33.9 5.7 35 6.6 35.2001 6.8V6.9C35.2001 7.2 35.2001 8.6 35.2001 12.4C35.2001 16.9 35.2001 24.9 35.2001 39.4C35.2001 39.7 34.9 40 34.6 40H5.40005ZM6.00005 38.8H34V7.7H26.5C26.2001 7.7 25.9 7.4 25.9 7.1V1.2H6.00005V38.8ZM27.1 6.5H32.9001L27.1 1.9V6.5Z" fill="#828282"/>
<path d="M11.8001 20.5999C11.5001 20.5999 11.2001 20.2999 11.2001 19.9999C11.2001 19.6999 11.5001 19.3999 11.8001 19.3999H28.2001C28.5001 19.3999 28.8001 19.6999 28.8001 19.9999C28.8001 20.2999 28.5001 20.5999 28.2001 20.5999H11.8001Z" fill="#0386C4"/>
<path d="M11.8001 30.4998C11.5001 30.4998 11.2001 30.1998 11.2001 29.8998C11.2001 29.5998 11.5001 29.2998 11.8001 29.2998H28.2001C28.5001 29.2998 28.8001 29.5998 28.8001 29.8998C28.8001 30.1998 28.5001 30.4998 28.2001 30.4998H11.8001Z" fill="#0386C4"/>
<path d="M11.8001 14.1C11.5001 14.1 11.2001 13.8 11.2001 13.5V7.1C11.2001 6.8 11.5001 6.5 11.8001 6.5H18.3001C18.6001 6.5 18.9001 6.8 18.9001 7.1V13.6C18.9001 13.9 18.6001 14.2 18.3001 14.2H11.8001V14.1ZM12.4001 12.9H17.7001V7.7H12.4001V12.9Z" fill="#CE152F"/>
</svg>
