<?xml version="1.0" encoding="utf-8"?>
<!-- Generator: Adobe Illustrator 19.1.1, SVG Export Plug-In . SVG Version: 6.00 Build 0)  -->
<svg version="1.1" id="Capa_1" xmlns="http://www.w3.org/2000/svg" xmlns:xlink="http://www.w3.org/1999/xlink" x="0px" y="0px"
	 viewBox="0 0 283.5 299.9" style="enable-background:new 0 0 283.5 299.9;" xml:space="preserve">
<style type="text/css">
	.st0{fill:#878787;}
	.st1{fill:#0087C4;}
	.st2{fill:#CE152F;}
</style>
<g>
	<path class="st0" d="M281.8,216c-4.1-8.9-14.7-12.7-23.5-8.6L207.9,231c0-0.5,0.3-1,0.3-1.5c0-9.8-8-17.7-17.7-17.7h-46.7
		c-23.9-25.9-67.4-27.1-81.7-26.8v-4.2c0-2.4-2-4.4-4.4-4.4H4.4c-2.4,0-4.4,2-4.4,4.4v101.9c0,2.4,2,4.4,4.4,4.4h53.1
		c2.4,0,4.4-2,4.4-4.4v-7.3l78.7,24.8c0.4,0.2,0.8,0.2,1.3,0.2c0.6,0,1.3-0.1,1.9-0.4l129.3-60.3C282.1,235.5,285.9,224.9,281.8,216
		z M53.2,278.1H8.9v-93h44.3V278.1z M269.5,231.5l-127.8,59.6L62,266.1v-72.2c13.2-0.3,55.5,0.8,76.4,25.2c0.8,1,2.1,1.6,3.4,1.6
		h48.7c4.9,0,8.9,4,8.9,8.9c0,3.4-2,6.2-4.8,7.8l-1.1,0.5c-0.9,0.3-1.9,0.6-3,0.6h-75.3c-2.4,0-4.4,2-4.4,4.4c0,2.4,2,4.4,4.4,4.4
		h75.3c0.5,0,0.9-0.2,1.3-0.3c1,0.3,2.2,0.4,3.2-0.2l1.9-0.9c0.4-0.1,0.7-0.3,1.1-0.5l64.1-29.9c4.4-2,9.7-0.1,11.8,4.3
		C275.8,224.2,273.9,229.5,269.5,231.5z"/>
	<path class="st1" d="M62,184.9v-4.2c0-2.4-2-4.4-4.4-4.4H4.4c-2.4,0-4.4,2-4.4,4.4v101.9c0,2.4,2,4.4,4.4,4.4h53.1
		c2.4,0,4.4-2,4.4-4.4v-7.3 M53.2,278.1H8.9v-93h44.3V278.1z M62,266.1v-72.2"/>
	<path class="st0" d="M73.3,89.5c0,49.3,40.1,89.5,89.4,89.5c49.4,0,89.5-40.1,89.5-89.5c0-49.4-40.1-89.5-89.5-89.5
		C113.5,0,73.3,40.1,73.3,89.5z M238.5,89.5c0,41.7-33.9,75.7-75.7,75.7c-41.7,0-75.7-34-75.7-75.7s34-75.7,75.7-75.7
		C204.5,13.8,238.5,47.8,238.5,89.5z"/>
	<path class="st2" d="M100.8,89.7c0,34.1,27.8,61.9,61.9,61.9c34.2,0,62-27.8,62-61.9c0-34.2-27.8-61.9-62-61.9
		C128.7,27.8,100.8,55.5,100.8,89.7z M211,89.7c0,26.5-21.6,48.2-48.2,48.2c-26.5,0-48.1-21.6-48.1-48.2c0-26.6,21.6-48.2,48.1-48.2
		C189.4,41.5,211,63.1,211,89.7z"/>
	<path class="st2" d="M153.8,57.9c-2.6,1.1-4.8,2.6-6.5,4.3c-1.7,1.7-3.1,3.7-4,5.8c-0.9,2.2-1.4,4.5-1.4,6.7c0,3.1,0.5,5.7,1.5,7.7
		c1.1,2,2.4,3.7,4,5c1.6,1.4,3.5,2.4,5.5,3.2c2.1,0.8,4.1,1.4,6.2,2l-1.6,16.3c-1.3-0.4-2.5-0.8-3.5-1.4c-1-0.5-1.9-1-2.7-1.5
		c-0.9-0.5-1.7-1-2.4-1.3c-0.7-0.4-1.4-0.6-2.1-0.6c-0.7,0-1.3,0.1-1.9,0.5c-0.6,0.4-1.1,0.7-1.4,1.3l-4.2,5.9c2.1,2,4.6,3.7,7.6,5
		c3,1.4,6.2,2.3,9.5,2.9l-0.8,8.9h4.9c1.1,0,1.9-0.3,2.5-1c0.6-0.7,1-1.4,1.1-2.2l0.5-5.4c3.3-0.2,6.3-1,8.8-2.2
		c2.6-1.2,4.9-2.7,6.6-4.6c1.8-1.8,3.2-3.9,4.1-6.4c1-2.4,1.4-5,1.4-7.7c0-1.9-0.3-3.5-0.7-4.9c-0.5-1.4-1.1-2.7-1.9-3.8
		c-0.8-1.1-1.8-2-2.9-2.8c-1.1-0.8-2.3-1.5-3.6-2.2c-1.3-0.6-2.6-1.2-4-1.6c-1.4-0.5-2.7-0.9-4.1-1.4l1.5-15.3
		c0.9,0.3,1.8,0.6,2.6,0.9c0.8,0.3,1.6,0.6,2.2,1c0.7,0.3,1.3,0.5,1.9,0.7c0.6,0.2,1.1,0.3,1.6,0.3c0.6,0,1.3-0.1,1.8-0.5
		c0.5-0.3,1-0.9,1.5-1.6l3.2-4.8c-1.6-1.4-3.4-2.9-5.7-4.1c-2.2-1.3-4.9-2.2-8-2.8l0.9-8.5h-4.9c-1,0-1.8,0.3-2.5,1
		c-0.6,0.6-1.1,1.4-1.1,2.2l-0.5,4.9C159.4,56.2,156.4,56.8,153.8,57.9z M160.3,80.3c-1.7-0.8-3.2-1.6-4.3-2.7
		c-1.1-1.1-1.6-2.4-1.6-4.1c0-0.8,0.2-1.5,0.5-2.2c0.2-0.7,0.6-1.3,1.2-1.9c0.6-0.5,1.3-1,2.2-1.4c0.9-0.4,2-0.7,3.3-0.9L160.3,80.3
		z M167,95c1.7,0.7,3.2,1.5,4.2,2.5c1.1,1,1.6,2.2,1.6,3.9c0,4.4-2.4,7-7.1,7.8L167,95z"/>
	
		<rect x="78.7" y="83.5" transform="matrix(0.7071 -0.7071 0.7071 0.7071 -15.5872 141.3124)" class="st0" width="168.1" height="12"/>
</g>
</svg>
