<?xml version="1.0" encoding="utf-8"?>
<!-- Generator: Adobe Illustrator 19.1.1, SVG Export Plug-In . SVG Version: 6.00 Build 0)  -->
<svg version="1.1" id="Capa_1" xmlns="http://www.w3.org/2000/svg" xmlns:xlink="http://www.w3.org/1999/xlink" x="0px" y="0px"
	 viewBox="0 0 283.5 285.5" style="enable-background:new 0 0 283.5 285.5;" xml:space="preserve">
<style type="text/css">
	.st0{fill:#0087C4;}
	.st1{fill:#CE152F;}
</style>
<g>
	<path class="st0" d="M283.5,61.9c0-2-1.4-3.6-3.3-4.2c-0.8-0.2-84.1-22.4-136-57c-1.5-1-3.4-1-4.9,0C87.4,35.4,4.1,57.5,3.3,57.7
		C1.4,58.2,0,59.9,0,61.9c0,1.6-2.3,154.8,139.8,221.2c0.6,0.3,1.2,0.4,1.9,0.4c0.7,0,1.3-0.1,1.9-0.4
		C285.8,216.7,283.5,63.4,283.5,61.9z M141.7,274.2C18.1,215.2,9.4,87.4,8.9,65.4C25,60.9,94,40.7,141.7,9.7
		c47.8,30.9,116.7,51.1,132.9,55.6C274,87.4,265.4,215.2,141.7,274.2z"/>
	<path class="st1" d="M254.5,78.2c0-1.6-1.1-2.9-2.6-3.3c-0.7-0.2-66.9-17.8-108.2-45.4c-1.2-0.8-2.7-0.8-3.9,0
		C98.5,57.1,32.2,74.7,31.6,74.9c-1.5,0.4-2.6,1.7-2.6,3.3c0,1.2-1.8,123.2,111.3,176c0.5,0.2,1,0.3,1.5,0.3c0.5,0,1-0.1,1.5-0.3
		C256.4,201.4,254.5,79.4,254.5,78.2z M141.7,247.1C43.3,200.2,36.4,98.5,36,81c12.8-3.6,67.7-19.7,105.7-44.3
		c38,24.6,92.9,40.7,105.7,44.3C247,98.5,240.1,200.2,141.7,247.1z"/>
	<rect x="136.5" y="36.7" class="st1" width="10.5" height="214.5"/>
</g>
</svg>
