<svg width="40" height="40" viewBox="0 0 40 40" fill="none" xmlns="http://www.w3.org/2000/svg">
<path d="M23.2 0C13.9 0 6.4 7.5 6.4 16.8C6.4 20.8 7.7 24.5 10.3 27.5L10.8 28.1L0.3 38.6C0.1 38.7 0 38.9 0 39.2C0 39.4 0.1 39.6 0.3 39.8C0.5 40 0.6 40 0.8 40C1 40 1.2 39.9 1.4 39.7L11.9 29.2L12.5 29.7C15.5 32.2 19.3 33.6 23.2 33.6C32.5 33.6 40 26.1 40 16.8C40 7.5 32.5 0 23.2 0ZM33.3 28L32.4 28.8C32.4 28.8 32.4 28.8 32.3 28.9L32 29.1V29.2C31.5 29.6 30.7 30 30.3 30.2L30.1 30.3H30L29.9 30.4C27.8 31.4 25.5 32 23.2 32C20.9 32 18.6 31.5 16.5 30.4L16.2 30.2L16.1 30.1C15.6 30 14.4 29.2 14.4 29.2L13.1 28C9.9 25.1 8.1 21 8.1 16.8C8.1 8.5 14.9 1.7 23.2 1.7C31.5 1.7 38.3 8.5 38.3 16.8C38.3 21.1 36.5 25.2 33.3 28Z" fill="#828282"/>
<path d="M32 21.7998V29.2998C31.5 29.6998 30.7 30.0998 30.3 30.2998V21.8998C30.3 19.6998 28.5 17.8998 26.3 17.8998H20.1C17.9 17.8998 16.1 19.6998 16.1 21.8998V30.2998C15.6 30.1998 14.4 29.3998 14.4 29.3998V21.8998C14.4 18.6998 17 16.1998 20.1 16.1998H26.3C29.4 15.9998 32 18.5998 32 21.7998Z" fill="#0386C4"/>
<path d="M23.4 15.1999C20.7 15.1999 18.5 12.9999 18.5 10.2999C18.5 7.5999 20.7 5.3999 23.4 5.3999C26.1 5.3999 28.3 7.5999 28.3 10.2999C28.3 12.9999 26.1 15.1999 23.4 15.1999ZM23.4 7.0999C21.6 7.0999 20.2 8.4999 20.2 10.2999C20.2 12.0999 21.6 13.4999 23.4 13.4999C25.2 13.4999 26.6 12.0999 26.6 10.2999C26.6 8.4999 25.2 7.0999 23.4 7.0999Z" fill="#CE152F"/>
</svg>
