<svg width="59" height="72" viewBox="0 0 59 72" fill="none" xmlns="http://www.w3.org/2000/svg">
<path d="M57.5828 56.1107C56.5388 58.6275 55.3092 60.9442 53.8824 63.0729C51.9336 65.9779 50.3444 67.9854 49.1148 69.1013C47.2124 70.9328 45.1708 71.8728 42.9842 71.9213C41.4182 71.9213 39.5216 71.4544 37.3234 70.5083C35.1136 69.5682 33.0836 69.1013 31.2276 69.1013C29.2788 69.1013 27.1908 69.5682 24.9578 70.5083C22.719 71.4544 20.921 71.9456 19.5406 71.9941C17.4468 72.0851 15.3588 71.1208 13.2708 69.0952C11.9426 67.8823 10.278 65.8021 8.28278 62.8546C6.14258 59.707 4.38518 56.0621 3.01058 51.9018C1.54318 47.4078 0.800781 43.0594 0.800781 38.8444C0.800781 34.0169 1.79838 29.8565 3.79358 26.3693C5.36538 23.5674 7.45338 21.3599 10.0634 19.7346C12.6792 18.1153 15.498 17.2844 18.543 17.2298C20.2076 17.2298 22.3884 17.7696 25.1028 18.8248C27.8056 19.8862 29.5456 20.4259 30.3054 20.4259C30.8738 20.4259 32.8052 19.7952 36.0706 18.5398C39.162 17.3754 41.772 16.8963 43.9122 17.0843C49.7064 17.5755 54.0564 19.9589 56.9506 24.2649C51.7712 27.5459 49.2076 32.1429 49.2598 38.0439C49.3062 42.6409 50.9012 46.4617 54.0332 49.4941C55.4542 50.9011 57.0376 51.9927 58.8008 52.7629C58.418 53.9334 58.012 55.0433 57.5828 56.1107ZM44.3008 1.4434C44.3008 5.04584 43.0422 8.40568 40.5366 11.5169C37.509 15.2163 33.8492 17.3511 29.882 17.0176C29.8298 16.587 29.8008 16.1321 29.8008 15.653C29.8008 12.1961 31.2392 8.49665 33.797 5.47036C35.073 3.93599 36.697 2.66241 38.6632 1.6496C40.6294 0.648924 42.4854 0.0970353 44.2312 0C44.2776 0.479112 44.3008 0.964288 44.3008 1.4434Z" fill="white"/>
</svg>
