<svg width="75" height="64" viewBox="0 0 75 64" fill="none" xmlns="http://www.w3.org/2000/svg">
<path d="M32.6833 47.9184C26.7124 47.9184 21.5177 44.6843 18.771 39.8776C17.4276 37.5336 16.6513 34.8632 16.6513 31.9852C16.6513 23.1729 23.8165 16.0519 32.6833 16.0519C38.5945 16.0519 43.7593 19.2564 46.5358 24.0037L60.5376 15.9926C55.0145 6.43857 44.5953 0 32.6833 0C14.9198 0 0.5 14.331 0.5 31.9852C0.5 37.771 2.05244 43.2304 4.76921 47.9184C10.3222 57.5318 20.7414 64 32.7131 64C44.6848 64 55.134 57.5021 60.6869 47.8591L46.6851 39.7886C43.9086 44.6546 38.6841 47.9184 32.6833 47.9184Z" fill="#A179DC"/>
<path d="M74.032 30.1751V27.0003H71.4347V24.4189H68.2701V27.0003H64.389V24.4189H61.1945V27.0003H58.5972V30.1751H61.1945V34.0323H58.5972V37.2071H61.1945V39.7884H64.389V37.2071H68.2701V39.7884H71.4645V37.2071H74.0619V34.0323H71.4645V30.1751H74.032ZM68.2701 34.0323H64.389V30.1751H68.2701V34.0323Z" fill="#DEC8FF"/>
</svg>
