<svg width="82" height="82" viewBox="0 0 82 82" fill="none" xmlns="http://www.w3.org/2000/svg">
<path d="M9.04311 16.8454C19.7143 13.9711 30.348 10.9418 41.0017 8C41.0017 29.3325 41.0017 50.6675 41.0017 72C40.6068 71.985 40.2068 72 39.8194 71.92C29.5456 69.1857 19.2869 66.3838 9.00562 63.6795C9.00562 49.7052 9.00562 35.731 9.00562 21.7568C9.02562 20.1197 8.96062 18.48 9.04311 16.8454ZM28.5632 31.0771C28.5782 34.9637 28.5932 38.8503 28.5982 42.7369C28.5557 43.9716 28.5282 45.2963 27.8458 46.376C27.4009 47.1208 26.6235 47.6382 25.7786 47.8007C24.3263 47.9956 22.6315 47.8157 21.6416 46.611C20.5317 45.1513 20.6467 43.2193 20.6242 41.4872C20.6242 38.1579 20.4742 34.8312 20.4617 31.502C18.9819 31.5745 17.5071 31.6969 16.0273 31.7569C16.0748 35.7535 16.1223 39.7501 16.1722 43.7466C16.2947 45.7812 16.8297 47.9481 18.3195 49.4328C19.7668 50.9774 21.934 51.6173 24.0013 51.6848C26.1385 51.9847 28.4208 51.6623 30.303 50.57C32.5228 49.1779 33.5676 46.5285 33.6376 43.9941C33.6526 39.6001 33.6226 35.2061 33.6451 30.8122C31.9528 30.9071 30.258 30.9896 28.5632 31.0771Z" fill="#1BA1E2"/>
<path d="M43.3834 17.8777C51.1725 17.8727 58.959 17.8752 66.7481 17.8752C66.7681 22.0467 66.7106 26.2182 66.7756 30.3898C67.808 30.3623 68.8378 30.3723 69.8702 30.3748C69.8777 34.5388 69.8652 38.7028 69.8777 42.8693C70.9126 42.8693 71.95 42.8718 72.9873 42.8643C73.0123 49.1129 72.9898 55.3639 72.9973 61.615C63.126 61.615 53.2547 61.6175 43.3859 61.6124C43.3834 60.5727 43.3834 59.5329 43.3834 58.4907C47.0055 58.4882 50.6276 58.4932 54.2496 58.4907C54.2546 53.2819 54.2421 48.0756 54.2546 42.8668C58.4191 42.8718 62.5836 42.8693 66.7481 42.8693C66.7481 39.7451 66.7481 36.6208 66.7481 33.4965C58.959 33.494 51.1725 33.499 43.3834 33.4965C43.3834 32.4543 43.3834 31.4145 43.3834 30.3748C50.1301 30.3673 56.8768 30.3773 63.621 30.3698C63.6235 27.2455 63.6235 24.1237 63.6235 20.9995C56.8768 20.997 50.1301 21.002 43.3859 20.9995C43.3809 19.9572 43.3834 18.9175 43.3834 17.8777ZM57.3742 45.9936C57.3742 50.1601 57.3742 54.3242 57.3742 58.4907C61.5412 58.4907 65.7057 58.4907 69.8727 58.4907C69.8727 54.3242 69.8727 50.1601 69.8702 45.9936C65.7057 45.9936 61.5412 45.9936 57.3742 45.9936Z" fill="#1BA1E2"/>
</svg>
