<svg width="115" height="82" viewBox="0 0 115 82" fill="none" xmlns="http://www.w3.org/2000/svg">
<path d="M27.8459 41L42.673 16H72.327L87.154 41L72.327 66H42.673L27.8459 41Z" fill="#1189FF"/>
<path d="M23.1505 16.8417C22.8444 16.4436 22.2238 16.4836 21.9728 16.918L8.86819 39.6288C8.37727 40.4793 8.37727 41.5209 8.86819 42.3714L21.9728 65.0822C22.1755 65.4325 22.6182 65.5264 22.9423 65.3409C23.0195 65.2965 23.0912 65.2358 23.1505 65.1585L26.7359 60.4981C27.4102 59.6212 27.4957 58.4355 26.9538 57.4738L18.4164 42.3483C18.204 41.9729 18.0868 41.5613 18.0647 41.1456C18.0385 40.6332 18.1558 40.1151 18.4164 39.6519L26.9538 24.5264C27.4957 23.5647 27.4102 22.379 26.7359 21.5021L23.1505 16.8417Z" fill="#CCCCCC"/>
<path d="M93.0272 16.918C92.7762 16.4836 92.1556 16.4436 91.8495 16.8417L88.2641 21.5021C87.5898 22.379 87.5043 23.5647 88.0462 24.5264L96.5836 39.6519C97.0566 40.4905 97.0566 41.5097 96.5836 42.3483L88.0462 57.4738C87.7787 57.9492 87.6642 58.4795 87.6987 59C87.7332 59.5324 87.9235 60.0546 88.2641 60.4981L91.8495 65.1585C92.1556 65.5566 92.7762 65.5166 93.0272 65.0822L106.132 42.3714C106.623 41.5209 106.623 40.4793 106.132 39.6288L93.0272 16.918Z" fill="#CCCCCC"/>
</svg>
