<?xml version="1.0" encoding="utf-8"?>
<!-- Generator: Adobe Illustrator 19.1.1, SVG Export Plug-In . SVG Version: 6.00 Build 0)  -->
<svg version="1.1" id="Layer_1" xmlns="http://www.w3.org/2000/svg" xmlns:xlink="http://www.w3.org/1999/xlink" x="0px" y="0px"
	 viewBox="0 0 283.5 234.4" style="enable-background:new 0 0 283.5 234.4;" xml:space="preserve">
<style type="text/css">
	.st0{fill:#878787;}
	.st1{fill:#0C88C4;}
	.st2{fill:#CE2030;}
</style>
<g>
	<g>
		<path class="st0" d="M129.3,223.5c-1.5,0-2.9-0.8-3.7-2.1l-29.3-50.8l-29.3,50.8c-1.2,2-3.8,2.7-5.8,1.6c-2-1.2-2.7-3.8-1.6-5.8
			l33-57.2c0.8-1.3,2.2-2.1,3.7-2.1c1.5,0,2.9,0.8,3.7,2.1l33,57.2c1.2,2,0.5,4.7-1.6,5.8C130.8,223.4,130,223.5,129.3,223.5z"/>
	</g>
	<g>
		<path class="st0" d="M96.2,234.4c-2.4,0-4.3-1.9-4.3-4.3V162c0-2.4,1.9-4.3,4.3-4.3c2.4,0,4.3,1.9,4.3,4.3v68.1
			C100.5,232.5,98.6,234.4,96.2,234.4z"/>
	</g>
	<g>
		<path class="st1" d="M247.8,88c-17.1,0-29.4-22.3-29.4-37.3c0-16.2,13.2-29.4,29.4-29.4c16.2,0,29.4,13.2,29.4,29.4
			C277.2,65.7,264.8,88,247.8,88z M247.8,29.8c-11.5,0-20.9,9.4-20.9,20.9c0,12.6,10.1,28.7,20.9,28.7c10.7,0,20.9-16.2,20.9-28.7
			C268.6,39.2,259.3,29.8,247.8,29.8z"/>
	</g>
	<g>
		<path class="st1" d="M275.4,164.3H265c-2.4,0-4.3-1.9-4.3-4.3c0-2.4,1.9-4.3,4.3-4.3h6.5l3.3-43.5c-3.6-1.9-12.5-5.6-26.9-5.6
			c-19.4,0-28.7,6.7-28.8,6.7c-1.5,1.1-3.5,1.2-5.1,0.1L171.5,83c-1.9-1.4-2.4-4.1-1-6c1.4-1.9,4.1-2.4,6-1l40.1,28.8
			c4.6-2.5,14.9-6.7,31.2-6.7c22.5,0,33.5,8.1,34,8.5c1.2,0.9,1.8,2.3,1.7,3.7l-3.8,50.1C279.5,162.6,277.6,164.3,275.4,164.3z"/>
	</g>
	<g>
		<path class="st1" d="M258.6,223.5h-21.7c-2.2,0-4-1.6-4.3-3.8l-6.3-58.3c-0.3-2.3,1.4-4.5,3.8-4.7c2.4-0.3,4.5,1.4,4.7,3.8
			l5.9,54.5h14.1l5.9-54.5c0.3-2.3,2.4-4,4.7-3.8c2.3,0.3,4,2.4,3.8,4.7l-6.3,58.3C262.7,221.9,260.8,223.5,258.6,223.5z"/>
	</g>
	<g>
		<path class="st1" d="M188.2,164.3H4.3c-2.4,0-4.3-1.9-4.3-4.3V4.3C0,1.9,1.9,0,4.3,0h183.9c2.4,0,4.3,1.9,4.3,4.3v56.5
			c0,2.4-1.9,4.3-4.3,4.3c-2.4,0-4.3-1.9-4.3-4.3V8.6H8.6v147.2h175.4v-36.3c0-2.4,1.9-4.3,4.3-4.3c2.4,0,4.3,1.9,4.3,4.3v40.6
			C192.5,162.4,190.6,164.3,188.2,164.3z"/>
	</g>
	<g>
		<path class="st1" d="M183.6,29.8H4.3c-2.4,0-4.3-1.9-4.3-4.3c0-2.4,1.9-4.3,4.3-4.3h179.3c2.4,0,4.3,1.9,4.3,4.3
			C187.9,27.9,186,29.8,183.6,29.8z"/>
	</g>
	<g>
		<path class="st2" d="M26.3,111.4c-1.5,0-2.9-0.8-3.7-2.1c-1.2-2-0.5-4.7,1.6-5.8l23-13.2c1.1-0.6,2.5-0.7,3.7-0.3l23,9.1L96,58.2
			c0.7-1.3,2.1-2.2,3.6-2.2c1.5,0,2.9,0.7,3.8,1.9l20.7,31.8l36.5-45.3c1.5-1.8,4.2-2.1,6-0.6c1.8,1.5,2.1,4.2,0.6,6l-40.2,49.9
			c-0.9,1.1-2.2,1.7-3.5,1.6c-1.4-0.1-2.6-0.8-3.4-1.9l-20-30.7l-20.5,37.9c-1,1.9-3.3,2.7-5.3,1.9l-24.6-9.7l-21.2,12.2
			C27.8,111.2,27,111.4,26.3,111.4z"/>
	</g>
</g>
</svg>
