<?xml version="1.0" encoding="utf-8"?>
<!-- Generator: Adobe Illustrator 19.1.1, SVG Export Plug-In . SVG Version: 6.00 Build 0)  -->
<svg version="1.1" id="Layer_1" xmlns="http://www.w3.org/2000/svg" xmlns:xlink="http://www.w3.org/1999/xlink" x="0px" y="0px"
	 viewBox="0 0 283.5 244" style="enable-background:new 0 0 283.5 244;" xml:space="preserve">
<style type="text/css">
	.st0{fill:#0C88C4;}
	.st1{fill:#CE2030;}
</style>
<g>
	<g>
		<path class="st0" d="M141.7,244C66.1,244,5.6,213.4,3.1,212.1c-2.1-1.1-3.3-3.3-3-5.6c0.2-1.4,4-35.6,23.2-70.2
			c25.7-46.4,66.7-71,118.5-71c8.9,0,17.5,0.7,25.7,2.1c3.1,0.5,5.2,3.5,4.6,6.5c-0.5,3.1-3.4,5.2-6.5,4.6c-7.6-1.3-15.6-2-23.8-2
			c-48.1,0-84.7,21.9-108.6,65.1c-14.4,26-19.7,52.3-21.3,62c14,6.5,67.2,29,129.9,29c62.7,0,115.8-22.5,129.9-29
			c-2.8-16.8-16.8-83.2-69.9-112.6c-2.7-1.5-3.7-5-2.2-7.7c1.5-2.7,5-3.7,7.7-2.2c65.9,36.5,75.8,121.6,76.2,125.2
			c0.3,2.3-1,4.6-3,5.6C277.9,213.4,217.4,244,141.7,244z"/>
	</g>
	<g>
		<path class="st1" d="M32.5,94.1c-3.4,0-6.9-0.9-10.4-2.7c-2.8-1.4-3.9-4.8-2.5-7.6c1.4-2.8,4.8-3.9,7.6-2.5c6.4,3.3,11,0.2,15-3.5
			c0.4-0.4,0.7-0.7,1-0.9c26.9-22.4,60.1-33.7,98.6-33.7c37.6,0,70.1,10.8,96.7,32.2l0.8,0.7c2.8,2.3,5.2,4.3,12.4,0.5
			c2.8-1.5,6.2-0.4,7.7,2.4s0.4,6.2-2.4,7.7c-13.9,7.4-21.3,1.2-24.9-1.8l-0.7-0.5c-24.5-19.7-54.7-29.7-89.6-29.7
			C106,54.5,75.2,65,50.4,85.6c-0.1,0.1-0.3,0.2-0.4,0.4C44.3,91.4,38.4,94.1,32.5,94.1z"/>
	</g>
	<g>
		<g>
			<path class="st1" d="M162.3,52.5c-14.5,0-26.2-11.8-26.2-26.2c0-14.5,11.8-26.2,26.2-26.2c14.5,0,26.2,11.8,26.2,26.2
				C188.5,40.7,176.8,52.5,162.3,52.5z M162.3,11.3c-8.2,0-14.9,6.7-14.9,14.9c0,8.2,6.7,14.9,14.9,14.9c8.2,0,14.9-6.7,14.9-14.9
				C177.2,18,170.5,11.3,162.3,11.3z"/>
		</g>
		<g>
			<path class="st1" d="M121.2,52.5c-14.5,0-26.2-11.8-26.2-26.2C94.9,11.8,106.7,0,121.2,0c14.5,0,26.2,11.8,26.2,26.2
				C147.4,40.7,135.6,52.5,121.2,52.5z M121.2,11.3c-8.2,0-14.9,6.7-14.9,14.9c0,8.2,6.7,14.9,14.9,14.9c8.2,0,14.9-6.7,14.9-14.9
				C136.1,18,129.4,11.3,121.2,11.3z"/>
		</g>
	</g>
</g>
</svg>
