<?xml version="1.0" encoding="utf-8"?>
<!-- Generator: Adobe Illustrator 19.1.1, SVG Export Plug-In . SVG Version: 6.00 Build 0)  -->
<svg version="1.1" id="Layer_1" xmlns="http://www.w3.org/2000/svg" xmlns:xlink="http://www.w3.org/1999/xlink" x="0px" y="0px"
	 viewBox="0 0 283.5 286.4" style="enable-background:new 0 0 283.5 286.4;" xml:space="preserve">
<style type="text/css">
	.st0{fill:#878787;}
	.st1{fill:#0C88C4;}
	.st2{fill:#CE2030;}
</style>
<g>
	<g>
		<g>
			<path class="st0" d="M232.7,104.2c-19.7,0-34-25.8-34-43.2c0-18.8,15.3-34,34-34c18.8,0,34,15.3,34,34
				C266.7,78.4,252.4,104.2,232.7,104.2z M232.7,36.7c-13.4,0-24.3,10.9-24.3,24.3c0,14.6,11.8,33.5,24.3,33.5
				c12.5,0,24.3-18.9,24.3-33.5C257,47.6,246.1,36.7,232.7,36.7z"/>
		</g>
		<g>
			<path class="st0" d="M273.1,201.1h-15.3c-2.7,0-4.8-2.2-4.8-4.8s2.2-4.8,4.8-4.8h10.8l4.9-65.2c-7.9-2.8-27.9-9.5-40.9-9.5
				c-16.4,0-38.9,8.3-39.1,8.4c-2.5,0.9-5.3-0.3-6.2-2.8c-0.9-2.5,0.3-5.3,2.8-6.2c1-0.4,24.3-9,42.5-9c18.2,0,46.5,11,47.7,11.4
				c2,0.8,3.2,2.8,3.1,4.9l-5.6,73.3C277.7,199.1,275.6,201.1,273.1,201.1z"/>
		</g>
		<g>
			<path class="st0" d="M248.6,276c-0.2,0-0.4,0-0.6,0c-2.7-0.3-4.5-2.7-4.2-5.4l9.2-74.9c0.3-2.7,2.7-4.5,5.4-4.2
				c2.7,0.3,4.5,2.7,4.2,5.4l-9.2,74.9C253.1,274.2,251,276,248.6,276z"/>
		</g>
	</g>
	<g>
		<g>
			<path class="st1" d="M50.8,104.2c-19.7,0-34-25.8-34-43.2c0-18.8,15.3-34,34-34c18.8,0,34,15.3,34,34
				C84.8,78.4,70.5,104.2,50.8,104.2z M50.8,36.7c-13.4,0-24.3,10.9-24.3,24.3c0,14.6,11.8,33.5,24.3,33.5
				c12.5,0,24.3-18.9,24.3-33.5C75.1,47.6,64.2,36.7,50.8,36.7z"/>
		</g>
		<g>
			<path class="st1" d="M25.7,201.1H10.4c-2.5,0-4.6-2-4.8-4.5L0,123.3c-0.2-2.1,1.1-4.1,3.1-4.9C4.3,118,32.6,107,50.8,107
				c18.3,0,42.2,9.5,43.2,9.9c2.5,1,3.7,3.8,2.7,6.3c-1,2.5-3.8,3.7-6.3,2.7c-0.2-0.1-23.3-9.2-39.6-9.2c-13,0-33,6.7-40.9,9.5
				l4.9,65.2h10.8c2.7,0,4.8,2.2,4.8,4.8S28.3,201.1,25.7,201.1z"/>
		</g>
		<g>
			<path class="st1" d="M34.9,276c-2.4,0-4.5-1.8-4.8-4.2l-9.2-74.9c-0.3-2.7,1.6-5.1,4.2-5.4c2.7-0.3,5.1,1.6,5.4,4.2l9.2,74.9
				c0.3,2.7-1.6,5.1-4.2,5.4C35.3,275.9,35.1,276,34.9,276z"/>
		</g>
	</g>
	<g>
		<g>
			<path class="st2" d="M142,84.5c-21.6,0-37.2-28.3-37.2-47.3C104.8,16.7,121.5,0,142,0s37.2,16.7,37.2,37.2
				C179.2,56.2,163.6,84.5,142,84.5z M142,9.7c-15.2,0-27.5,12.3-27.5,27.5c0,16.4,13.3,37.6,27.5,37.6c14.2,0,27.5-21.2,27.5-37.6
				C169.5,22,157.2,9.7,142,9.7z"/>
		</g>
		<g>
			<path class="st2" d="M186.8,191.8h-16.9c-2.7,0-4.8-2.2-4.8-4.8c0-2.7,2.2-4.8,4.8-4.8h12.4l5.6-73.9c-5.3-3-20.3-10-45.9-10
				c-25.5,0-40.6,7-45.9,10l5.6,73.9h12.4c2.7,0,4.8,2.2,4.8,4.8c0,2.7-2.2,4.8-4.8,4.8H97.2c-2.5,0-4.6-2-4.8-4.5l-6.1-81.2
				c-0.1-1.6,0.6-3.2,1.9-4.2c0.7-0.5,18-13.3,53.9-13.3c35.9,0,53.1,12.7,53.9,13.3c1.3,1,2,2.6,1.9,4.2l-6.2,81.2
				C191.4,189.9,189.3,191.8,186.8,191.8z"/>
		</g>
		<g>
			<path class="st2" d="M159.6,286.4h-35.3c-2.5,0-4.5-1.9-4.8-4.3l-10.3-94.6c-0.3-2.7,1.6-5,4.3-5.3c2.7-0.3,5,1.6,5.3,4.3
				l9.8,90.2h26.6l9.8-90.2c0.3-2.7,2.7-4.6,5.3-4.3c2.7,0.3,4.6,2.7,4.3,5.3l-10.2,94.6C164.2,284.6,162.1,286.4,159.6,286.4z"/>
		</g>
	</g>
</g>
</svg>
