<?xml version="1.0" encoding="utf-8"?>
<!-- Generator: Adobe Illustrator 19.1.1, SVG Export Plug-In . SVG Version: 6.00 Build 0)  -->
<svg version="1.1" id="Capa_1" xmlns="http://www.w3.org/2000/svg" xmlns:xlink="http://www.w3.org/1999/xlink" x="0px" y="0px"
	 viewBox="0 0 283.5 239.1" style="enable-background:new 0 0 283.5 239.1;" xml:space="preserve">
<style type="text/css">
	.st0{fill:#878787;}
	.st1{fill:#0087C4;}
	.st2{fill:#CE152F;}
</style>
<g>
	<g id="handshake">
		<path class="st0" d="M282.1,101.5L182,1.3c-1.7-1.7-4.5-1.7-6.3,0l-24.3,24.3c-0.8,0.8-1.3,1.9-1.3,3.1c0,1.2,0.5,2.3,1.3,3.2
			l12.4,12.4l-44.2,0l12.5-12.5c1.7-1.7,1.7-4.5,0-6.3L107.8,1.3c-1.7-1.7-4.5-1.7-6.3,0L1.3,101.5c-1.7,1.7-1.7,4.5,0,6.3
			l24.3,24.3c0.8,0.8,1.9,1.3,3.1,1.3c1.2,0,2.3-0.5,3.1-1.3l6.3-6.3l15.9,15.9l-4.3,4.3c-7.3,7.3-7.3,19.3,0,26.6
			c3.7,3.7,8.5,5.5,13.3,5.5c0.7,0,1.3-0.3,1.9-0.4c-0.1,0.6-0.4,1.2-0.4,1.9c0,5,1.9,9.8,5.5,13.3c3.6,3.6,8.3,5.5,13.3,5.5
			c0,0,0,0,0,0c0.7,0,1.2-0.3,1.9-0.4c-0.1,0.7-0.4,1.2-0.4,1.9c0,5,1.9,9.7,5.5,13.3c3.5,3.6,8.3,5.5,13.3,5.5h0
			c0.7,0,1.2-0.3,1.9-0.4c-0.6,5.4,1,11.1,5.1,15.2c3.7,3.7,8.5,5.5,13.3,5.5c4.8,0,9.6-1.8,13.3-5.5l4.3-4.3l4.2,4.3
			c3.6,3.7,8.5,5.5,13.3,5.5c4.8,0,9.6-1.8,13.3-5.5c3.5-3.5,5.5-8.2,5.5-13.2c0-0.6,0-1.1-0.1-1.7c5.4,0.4,10.8-1.4,14.9-5.5
			c3.5-3.6,5.5-8.3,5.5-13.3c0-0.5,0-1-0.1-1.6c5.4,0.4,10.9-1.4,14.9-5.5c4.1-4.1,5.9-9.6,5.5-14.9c0.5,0.1,1,0,1.6,0.1
			c5,0,9.8-1.9,13.3-5.5c7.3-7.4,7.3-19.3,0-26.6l-4.2-4.3l15.9-15.9l6.3,6.3c0.8,0.8,1.9,1.3,3.1,1.3c1.2,0,2.3-0.5,3.1-1.3
			l24.3-24.3C283.9,106,283.9,103.2,282.1,101.5z M28.7,122.7l-18-18l94-93.9l18,18L28.7,122.7z M56.1,166.3
			c-3.9-3.9-3.9-10.2,0-14.1l7.4-7.4v0h0l8.1-8.1c3.7-3.7,10.3-3.7,14.1,0c3.9,3.9,3.9,10.2,0,14.1v0l-15.4,15.5
			C66.3,170.2,60,170.2,56.1,166.3z M83.5,189.6c-2.7,0-5.2-1-7.1-2.9c-1.9-1.9-2.9-4.4-2.9-7.1c0-2.6,1.1-5.1,2.9-7l21.7-21.8
			c1.9-1.9,4.4-2.9,7-2.9c2.7,0,5.2,1,7.1,2.9c3.9,3.9,3.9,10.2,0,14.1l-21.7,21.8C88.7,188.6,86.2,189.6,83.5,189.6z M103.9,209.9
			c-2.7,0-5.2-1-7.1-2.9c-1.9-1.8-2.9-4.3-2.9-7c0-2.7,1.1-5.2,2.9-7.1l15.5-15.5h0c1.9-1.9,4.4-2.9,7-2.9l0,0c2.7,0,5.2,1,7,2.9
			c1.9,1.9,2.9,4.4,2.9,7.1c0,2.7-1,5.2-2.9,7l-15.5,15.5C109,208.9,106.5,209.9,103.9,209.9z M131.2,227.4
			c-3.9,3.9-10.2,3.9-14.1,0c-3.9-3.9-3.9-10.2,0-14.1l10-10c0,0,0,0,0,0c1.9-1.9,4.3-2.9,7-2.9c2.4,0,5.2,1,7,2.9
			c3.8,3.8,3.8,10.3,0,14.1L131.2,227.4z M227.4,166.3c-1.9,1.9-4.4,2.9-7,2.9c0,0,0,0,0,0c-2.7,0-5.2-1-7-2.9
			c-1.7-1.7-4.5-1.8-6.3,0c-0.9,0.9-1.3,2-1.3,3.2c0,1.1,0.4,2.2,1.3,3.1c3.9,3.9,3.9,10.2,0,14.1c-3.9,3.9-10.2,3.9-14.2,0
			c-1.7-1.7-4.5-1.7-6.3,0c-0.8,0.9-1.3,2-1.3,3.1c0,1.1,0.4,2.3,1.3,3.1c1.9,1.8,2.9,4.3,2.9,7c0,2.6-1,5.2-2.9,7.1
			c-3.9,3.9-10.2,3.9-14.1,0c-1.7-1.7-4.5-1.7-6.2,0c-0.9,0.9-1.3,2-1.3,3.1c0,1.1,0.4,2.3,1.3,3.1c1.9,1.9,2.9,4.4,2.9,7.1
			c0,2.6-1,5.1-2.9,7c-3.9,3.9-10.2,3.9-14.1,0l-4.3-4.4c6.8-7.3,6.7-18.8-0.4-26c-3-3-6.8-4.5-10.9-5c1-2.4,1.6-4.8,1.6-7.5
			c0-5-2-9.8-5.5-13.3c-2.9-2.9-6.7-4.4-10.7-5c3.5-7,2.5-15.7-3.4-21.6c-5.6-5.6-14.6-6.6-21.6-3.2c-0.5-3.9-2-7.8-5-10.8
			c-7.1-7.1-19.5-7.1-26.6,0l-5,5l-15.9-15.9l66.4-66.4l31.9,0L113,82.8c-7.3,7.3-7.3,19.3,0,26.6c3.7,3.6,8.5,5.5,13.3,5.5
			c4.8,0,9.6-1.8,13.3-5.5c0,0,0.1-0.1,0.1-0.1l22.7-22.7c5.9,2.2,13.1,1.2,17.1,0.3c2.6,3.5,3.5,8.1,0.2,11.5
			c-1.7,1.7-1.7,4.5,0,6.3l47.6,47.6C231.3,156.1,231.3,162.4,227.4,166.3z M223.2,135.5l-34.7-34.6c3.7-6.7,2.3-15.4-4.2-22
			c-1.2-1.1-2.8-1.6-4.4-1.1c-3.6,1.1-12.2,2.5-15.7-0.1c-1.7-1.3-4.2-1.1-5.7,0.4l-25.1,25.2c0,0,0,0.1-0.1,0.1
			c-3.9,3.8-10.2,3.7-14-0.1c-3.9-3.9-3.9-10.2,0-14.1l36-35.9l17.5,0l66.4,66.4L223.2,135.5z M254.7,122.7l-47-47L167.1,35h0
			l-6.3-6.3l18.1-18l93.9,93.9L254.7,122.7z"/>
	</g>
	<g id="handshake_1_">
		<path class="st1" d="M119.7,44.3l12.5-12.5c1.7-1.7,1.7-4.5,0-6.3L107.8,1.3c-1.7-1.7-4.5-1.7-6.3,0L1.3,101.5
			c-1.7,1.7-1.7,4.5,0,6.3l24.3,24.3c0.8,0.8,1.9,1.3,3.1,1.3c1.2,0,2.3-0.5,3.1-1.3l6.3-6.3 M28.7,122.7l-18-18l94-93.9l18,18
			L28.7,122.7z"/>
	</g>
	<g id="handshake_2_">
		<path class="st2" d="M245.3,125.8l6.3,6.3c0.8,0.8,1.9,1.3,3.1,1.3c1.2,0,2.3-0.5,3.1-1.3l24.3-24.3c1.7-1.7,1.7-4.5,0-6.3
			L181.9,1.3c-1.7-1.7-4.6-1.7-6.3,0l-24.3,24.3c-1.7,1.7-1.7,4.5,0,6.3l12.5,12.5 M160.7,28.7l18-18l94,93.9l-18,18L160.7,28.7z"/>
	</g>
</g>
</svg>
