<?xml version="1.0" encoding="utf-8"?>
<!-- Generator: Adobe Illustrator 19.1.1, SVG Export Plug-In . SVG Version: 6.00 Build 0)  -->
<svg version="1.1" id="Capa_1" xmlns="http://www.w3.org/2000/svg" xmlns:xlink="http://www.w3.org/1999/xlink" x="0px" y="0px"
	 viewBox="0 0 283.5 283.4" style="enable-background:new 0 0 283.5 283.4;" xml:space="preserve">
<style type="text/css">
	.st0{fill:#0087C4;}
	.st1{fill:#878787;}
	.st2{fill:#CE152F;}
</style>
<g>
	<g>
		<path class="st0" d="M180.3,109.4c1.8-1.8,1.8-4.5,0-6.3c-1.7-1.7-4.5-1.7-6.2,0l-20.1,20.1c-2.3-1.5-4.9-2.7-7.8-3.3V39.9
			c0-2.4-2-4.4-4.4-4.4c-2.4,0-4.4,2-4.4,4.4V120c-10.1,2.1-17.7,11-17.7,21.7c0,12.2,9.9,22.1,22.1,22.1c12.2,0,22.1-9.9,22.1-22.1
			c0-4.5-1.4-8.7-3.7-12.2L180.3,109.4z M141.7,155c-7.3,0-13.3-6-13.3-13.3c0-7.3,6-13.3,13.3-13.3c7.3,0,13.3,6,13.3,13.3
			C155,149,149,155,141.7,155z"/>
		<path class="st0" d="M141.7,167.3c-14.1,0-25.5-11.4-25.5-25.5c0-11.1,7.3-21,17.7-24.4V39.9c0-4.3,3.5-7.8,7.8-7.8
			s7.8,3.5,7.8,7.8v77.6c1.3,0.4,2.6,1,3.8,1.6l18.3-18.3c3-3,8-3,11.1,0c1.5,1.5,2.3,3.4,2.3,5.5c0,2.1-0.8,4.1-2.3,5.6l-18.2,18.3
			c1.9,3.6,2.8,7.6,2.8,11.6C167.3,155.8,155.8,167.3,141.7,167.3z M141.7,38.8c-0.6,0-1,0.5-1,1v82.9l-2.7,0.6
			c-8.7,1.8-15,9.5-15,18.4c0,10.3,8.4,18.7,18.7,18.7s18.7-8.4,18.7-18.7c0-3.7-1.1-7.2-3.1-10.3l-1.5-2.3l22-22.1
			c0.3-0.3,0.3-0.5,0.3-0.7c-0.7-1.1-1.4-1.1-1.7-0.7l-22.1,22.1l-2.3-1.5c-2.1-1.4-4.3-2.3-6.6-2.8l-2.7-0.6V39.9
			C142.8,39.3,142.3,38.8,141.7,38.8z M141.7,158.4c-9.2,0-16.7-7.5-16.7-16.7c0-9.2,7.5-16.7,16.7-16.7c9.2,0,16.7,7.5,16.7,16.7
			C158.4,150.9,150.9,158.4,141.7,158.4z M141.7,131.8c-5.5,0-9.9,4.4-9.9,9.9c0,5.4,4.4,9.9,9.9,9.9c5.4,0,9.9-4.4,9.9-9.9
			C151.6,136.3,147.2,131.8,141.7,131.8z"/>
	</g>
	<g>
		<path class="st1" d="M39.9,137.3c-2.4,0-4.4,2-4.4,4.4c0,2.4,2,4.4,4.4,4.4h13.3c2.4,0,4.4-2,4.4-4.4c0-2.4-2-4.4-4.4-4.4H39.9z"
			/>
		<path class="st1" d="M53.2,149.6H39.9c-4.3,0-7.8-3.5-7.8-7.8s3.5-7.8,7.8-7.8h13.3c4.3,0,7.8,3.5,7.8,7.8S57.5,149.6,53.2,149.6z
			"/>
	</g>
	<g>
		<path class="st1" d="M230.3,137.3c-2.4,0-4.4,2-4.4,4.4c0,2.4,2,4.4,4.4,4.4h13.3c2.4,0,4.4-2,4.4-4.4c0-2.4-2-4.4-4.4-4.4H230.3z
			"/>
		<path class="st1" d="M243.6,149.6h-13.3c-4.3,0-7.8-3.5-7.8-7.8s3.5-7.8,7.8-7.8h13.3c4.3,0,7.8,3.5,7.8,7.8
			S247.9,149.6,243.6,149.6z"/>
	</g>
	<g>
		<path class="st1" d="M146.2,243.6v-13.3c0-2.4-2-4.4-4.4-4.4c-2.4,0-4.4,2-4.4,4.4v13.3c0,2.4,2,4.4,4.4,4.4
			C144.2,248,146.2,246,146.2,243.6z"/>
		<path class="st1" d="M141.7,251.4c-4.3,0-7.8-3.5-7.8-7.8v-13.3c0-4.3,3.5-7.8,7.8-7.8s7.8,3.5,7.8,7.8v13.3
			C149.6,247.9,146.1,251.4,141.7,251.4z M141.7,229.3c-0.6,0-1,0.5-1,1v13.3c0,1.1,2.1,1.2,2,0v-13.3
			C142.8,229.8,142.3,229.3,141.7,229.3z"/>
	</g>
	<g>
		<path class="st0" d="M159.5,273.3c-5.8,0.8-11.7,1.3-17.7,1.3C68.5,274.6,8.9,215,8.9,141.7C8.9,68.5,68.5,8.9,141.7,8.9
			c73.3,0,132.9,59.6,132.9,132.9c0,6-0.6,11.9-1.3,17.7h5.7c1.1,0,2.1,0.2,3.1,0.4c0.8-5.9,1.3-12,1.3-18.1
			C283.5,63.6,219.9,0,141.7,0C63.6,0,0,63.6,0,141.7c0,78.1,63.6,141.7,141.7,141.7c6.1,0,12.2-0.5,18.1-1.3c-0.2-1-0.4-2-0.4-3.1
			V273.3z"/>
	</g>
	<g>
		<path class="st1" d="M279,168.3H172.7c-2.4,0-4.4,2-4.4,4.4V279c0,2.4,2,4.4,4.4,4.4H279c2.4,0,4.4-2,4.4-4.4V172.7
			C283.5,170.3,281.5,168.3,279,168.3z M274.6,274.6h-97.5v-97.5h97.5V274.6z"/>
	</g>
	<g>
		<path class="st2" d="M222.9,244.9c0-0.9-0.3-1.5-0.8-2.1c-0.6-0.5-1.3-0.8-2.3-0.8h-13.1c-1,0-2,0-3.1,0.3
			c-1.1,0.2-2.2,0.4-3.3,0.7l11.5-11.8c1.4-1.4,2.7-2.8,4-4.2c1.2-1.4,2.3-2.8,3.3-4.2c0.9-1.5,1.7-3,2.3-4.6
			c0.5-1.6,0.8-3.4,0.8-5.2c0-2.2-0.4-4.2-1.2-6c-0.8-1.8-1.9-3.4-3.3-4.6c-1.4-1.3-3.1-2.3-5-3c-1.9-0.7-4.1-1.1-6.5-1.1
			c-2.3,0-4.4,0.3-6.4,0.9c-2,0.6-3.7,1.6-5.3,2.8c-1.5,1.2-2.8,2.8-3.8,4.7c-1,1.8-1.7,4-2.1,6.5l4.6,0.8c0.4,0.1,0.8,0.1,1.2,0.1
			c0.8,0,1.5-0.2,2-0.6c0.5-0.4,0.9-1,1.2-1.9c0.5-1.8,1.5-3.2,2.8-4.3c1.4-1.1,3.1-1.6,5.2-1.6c1.1,0,2.2,0.2,3.1,0.5
			c0.9,0.3,1.7,0.8,2.3,1.4c0.7,0.7,1.2,1.4,1.5,2.4c0.4,0.9,0.5,2,0.5,3.2c0,1.3-0.2,2.6-0.6,3.8c-0.4,1.2-0.9,2.4-1.6,3.6
			c-0.7,1.2-1.5,2.3-2.6,3.6c-1,1.2-2.2,2.5-3.5,3.8l-15.6,15.6c-0.5,0.6-0.9,1.1-1.2,1.8c-0.2,0.7-0.4,1.3-0.4,1.9v2.9h35.1V244.9z
			"/>
	</g>
	<g>
		<path class="st2" d="M228.4,237.1c0.4,0.4,1,0.6,1.5,0.6h21.7v12.5h7.6v-12.5h4.6c0.6,0,1-0.2,1.3-0.5c0.3-0.4,0.5-0.8,0.5-1.2
			v-5.1h-6.4v-31.9H251l-24.3,32.4l0.9,4.4C227.7,236.3,228,236.8,228.4,237.1z M251.9,209c-0.1,0.9-0.2,1.9-0.2,2.7
			c-0.1,0.9-0.1,1.7-0.1,2.5v16.8H236L251.9,209z"/>
	</g>
</g>
</svg>
