<?xml version="1.0" encoding="utf-8"?>
<!-- Generator: Adobe Illustrator 19.1.1, SVG Export Plug-In . SVG Version: 6.00 Build 0)  -->
<svg version="1.1" id="Capa_1" xmlns="http://www.w3.org/2000/svg" xmlns:xlink="http://www.w3.org/1999/xlink" x="0px" y="0px"
	 viewBox="0 0 283.5 283.4" style="enable-background:new 0 0 283.5 283.4;" xml:space="preserve">
<style type="text/css">
	.st0{fill:#0087C4;}
	.st1{fill:#878787;}
	.st2{fill:#CE152F;}
</style>
<g>
	<path class="st0" d="M39.8,70.8H62c2.4,0,4.4-2,4.4-4.4c0-2.5-2-4.4-4.4-4.4H39.8c-2.4,0-4.4,2-4.4,4.4
		C35.4,68.9,37.4,70.8,39.8,70.8z"/>
	<path class="st0" d="M39.8,44.3h57.6c2.5,0,4.4-2,4.4-4.4c0-2.5-2-4.4-4.4-4.4H39.8c-2.4,0-4.4,2-4.4,4.4
		C35.4,42.3,37.4,44.3,39.8,44.3z"/>
	<path class="st1" d="M194.8,269.6v4.9H8.9V8.9h121.9v59.6c0,2.4,2,4.4,4.4,4.4h59.6v55.9c1.5-0.1,2.9-0.5,4.4-0.5
		c1.5,0,3,0.4,4.4,0.4V68.5c0-1.2-0.5-2.3-1.3-3.1l-64-64.1c-0.8-0.8-1.9-1.3-3.1-1.3H4.4C2,0,0,2,0,4.4v274.5c0,2.5,2,4.4,4.4,4.4
		h194.8c2.4,0,4.4-2,4.4-4.4v-9.3c-1.5,0.1-2.9,0.4-4.4,0.4C197.7,270.1,196.3,269.7,194.8,269.6z M139.6,15.1l48.9,49h-48.9V15.1z"
		/>
	<path class="st0" d="M167.8,168.1c0.1,1.5,0.4,3,0.4,4.6c0,1.9-0.4,3.8-0.6,5.7l-6.7-1c-1.5,2.7-2.7,5.4-3.7,8.4l9.2,1.4
		c-1.9,8.4-5.4,16-10.1,22.9c0.9,3.4,2.1,6.6,3.7,9.6c10.4-12.9,16.9-29.1,16.9-47c0-3.7-0.6-7.3-1.1-10.9
		C173,163.6,170.2,165.7,167.8,168.1z"/>
	<path class="st0" d="M159.6,140.6c2.4-1.7,5.1-2.9,7.7-4.2c-12.9-23.1-37.2-38.9-65.5-38.9c-41.5,0-75.2,33.7-75.2,75.3
		c0,41.5,33.7,75.3,75.2,75.3c13.9,0,26.7-4,37.9-10.6c-1.5-2.4-2.9-5-4.1-7.6c-9.9,5.9-21.4,9.4-33.7,9.4c-18,0-34.3-7.2-46.2-18.9
		l47.6-42.8l27.7,4.3c0.8-2.9,1.5-5.8,2.7-8.5l-27.3-4.2v-62.2C129.3,108.3,148.9,121.6,159.6,140.6z M49.8,213.5
		c-8.9-11.3-14.4-25.4-14.4-40.8c0-18,7.3-34.2,18.9-46.2l41.3,45.9L49.8,213.5z M97.4,161.1L61,120.7c10.2-8,22.7-13.1,36.4-14
		V161.1z"/>
	<path class="st2" d="M282.2,250.9l-19.8-19.7c-1.4,2.7-3,5.4-4.7,7.9l15.1,15l-18.9,18.8l-15-15c-2.5,1.7-5.2,3.3-7.9,4.6
		l19.7,19.7c0.9,0.9,2,1.3,3.1,1.3c1.1,0,2.3-0.4,3.1-1.3l25.1-25C283.9,255.4,283.9,252.6,282.2,250.9z"/>
	<g>
		<path class="st2" d="M199.2,261.2c-34.2,0-61.9-27.8-61.9-62c0-34.2,27.8-62,61.9-62c16.4,0,32,6.4,43.7,18.1
			c11.7,11.7,18.2,27.3,18.2,43.8c0,16.5-6.5,32.1-18.2,43.8C231.2,254.8,215.7,261.2,199.2,261.2z M199.2,146.2
			c-29.3,0-53.1,23.8-53.1,53.1c0,29.3,23.8,53.1,53.1,53.1c14.1,0,27.4-5.5,37.4-15.6c10-10,15.6-23.4,15.6-37.5
			C252.2,170,228.4,146.2,199.2,146.2z"/>
	</g>
</g>
</svg>
