<?xml version="1.0" encoding="utf-8"?>
<!-- Generator: Adobe Illustrator 19.1.1, SVG Export Plug-In . SVG Version: 6.00 Build 0)  -->
<svg version="1.1" id="Capa_1" xmlns="http://www.w3.org/2000/svg" xmlns:xlink="http://www.w3.org/1999/xlink" x="0px" y="0px"
	 viewBox="0 0 283.5 283.5" style="enable-background:new 0 0 283.5 283.5;" xml:space="preserve">
<style type="text/css">
	.st0{fill:#868686;}
	.st1{fill:#CE152F;}
	.st2{fill:#0087C4;}
</style>
<g>
	<path class="st0" d="M122.4,78.2c1.1-3.7,2.5-7.2,4.3-10.6c-6.2-10.4-15.8-21.9-31.3-31.5c-2.1-1.3-4.8-0.7-6.1,1.4
		c-1.3,2.1-0.7,4.8,1.4,6.1C107.7,54.2,117.1,67.7,122.4,78.2z"/>
	<path class="st0" d="M100.3,17.4c16.5,6.2,32.2,18.5,43.9,29.6c2.5-1.8,5.1-3.3,7.9-4.8c-12.6-12-29.9-26.1-48.7-33.1
		c-2.3-0.9-4.8,0.3-5.7,2.6C96.9,14,98,16.6,100.3,17.4z"/>
	<path class="st0" d="M135.9,8.6c21.7,7.2,37.7,17.1,49.9,27.4c6.1,0.7,12,2,17.4,4.3c-13.7-15-34.1-30.1-64.5-40.2
		c-2.3-0.8-4.8,0.5-5.6,2.8C132.3,5.3,133.6,7.9,135.9,8.6z"/>
	<path class="st1" d="M128.5,95.2c0,28.1,22.9,50.9,50.9,50.9c28.1,0,51-22.8,51-50.9c0-28.1-22.9-50.9-51-50.9
		C151.3,44.3,128.5,67.1,128.5,95.2z M221.5,95.2c0,23.2-18.9,42.1-42.1,42.1c-23.2,0-42.1-18.9-42.1-42.1
		c0-23.2,18.9-42.1,42.1-42.1C202.6,53.1,221.5,72,221.5,95.2z"/>
	<path class="st1" d="M171.4,63.2c0,0,0,0-0.1-0.1c-0.5,0.1-0.9,0.4-1.3,0.6c-2.2,0.7-4.2,1.5-6.2,2.6c-0.3,0.2-0.7,0.2-1,0.4
		c0,0,0.1,0,0.1,0.1c-9.9,5.8-16.7,16.4-16.7,28.6c0,18.3,14.9,33.2,33.2,33.2c18.3,0,33.2-14.9,33.2-33.2
		c0-18.3-14.9-33.2-33.2-33.2C176.6,62.1,174,62.6,171.4,63.2z M203.8,95.4c0,13.5-10.9,24.4-24.4,24.4S155,108.8,155,95.4
		C155,81.9,166,71,179.4,71S203.8,81.9,203.8,95.4z"/>
	<path class="st1" d="M175.7,82.1c-1,0.4-2,1-2.7,1.7c-0.7,0.7-1.3,1.5-1.7,2.4c-0.4,0.9-0.6,1.8-0.6,2.7c0,1.2,0.2,2.3,0.6,3.2
		c0.4,0.8,1,1.5,1.7,2.1c0.7,0.6,1.4,1,2.3,1.3c0.8,0.3,1.7,0.6,2.5,0.8l-0.6,6.7c-0.5-0.1-1-0.3-1.4-0.5c-0.4-0.2-0.8-0.4-1.1-0.7
		c-0.4-0.2-0.7-0.4-1-0.5c-0.3-0.2-0.6-0.2-0.8-0.2c-0.3,0-0.5,0-0.8,0.2c-0.2,0.1-0.4,0.3-0.6,0.5l-1.7,2.4c0.8,0.8,1.9,1.5,3.1,2
		c1.3,0.6,2.6,1,3.9,1.2l-0.3,3.6h2c0.4,0,0.8-0.1,1-0.4c0.2-0.2,0.4-0.6,0.4-0.9l0.2-2.2c1.4-0.1,2.6-0.4,3.7-0.9
		c1-0.5,2-1.1,2.7-1.9c0.8-0.8,1.3-1.6,1.7-2.6c0.4-1,0.6-2,0.6-3.2c0-0.7-0.1-1.4-0.3-2c-0.2-0.6-0.4-1.1-0.8-1.5
		c-0.3-0.4-0.7-0.8-1.2-1.2c-0.4-0.3-0.9-0.6-1.5-0.9c-0.5-0.3-1-0.5-1.6-0.7c-0.6-0.2-1.1-0.4-1.7-0.6l0.6-6.3
		c0.4,0.1,0.7,0.2,1,0.4c0.3,0.1,0.6,0.3,0.9,0.4c0.3,0.1,0.5,0.2,0.8,0.3c0.2,0.1,0.5,0.1,0.6,0.1c0.3,0,0.5-0.1,0.7-0.2
		c0.2-0.1,0.4-0.3,0.6-0.6l1.3-2c-0.6-0.6-1.4-1.1-2.3-1.7c-0.9-0.5-2.1-0.9-3.3-1.2l0.3-3.5h-2c-0.4,0-0.8,0.1-1,0.4
		c-0.3,0.3-0.4,0.6-0.4,0.9l-0.2,2C177.9,81.4,176.7,81.7,175.7,82.1z M178.3,91.3c-0.7-0.3-1.3-0.6-1.8-1.1c-0.4-0.4-0.7-1-0.7-1.7
		c0-0.3,0.1-0.6,0.2-0.9c0.1-0.3,0.3-0.6,0.5-0.8c0.2-0.2,0.6-0.4,0.9-0.6c0.4-0.2,0.8-0.3,1.4-0.4L178.3,91.3z M181.1,97.3
		c0.7,0.2,1.3,0.6,1.7,1c0.4,0.4,0.7,0.9,0.7,1.6c0,1.8-1,2.9-3,3.2L181.1,97.3z"/>
	<path class="st2" d="M281.8,199.2c-4.2-8.9-14.7-12.7-23.5-8.6l-50.4,23.5c0-0.5,0.3-1,0.3-1.5c0-9.8-8-17.7-17.7-17.7h-46.7
		C119.9,169,76.4,167.8,62,168.1v-4.2c0-2.4-2-4.4-4.4-4.4H4.4c-2.4,0-4.4,2-4.4,4.4v101.9c0,2.5,2,4.4,4.4,4.4h53.2
		c2.4,0,4.4-2,4.4-4.4v-7.3l78.7,24.8c0.4,0.1,0.9,0.2,1.3,0.2c0.6,0,1.3-0.1,1.8-0.4l129.4-60.3
		C282.1,218.6,285.9,208.1,281.8,199.2z M53.2,261.3H8.9v-93h44.3V261.3z M269.5,214.8l-127.8,59.6L62,249.2V177
		c13.1-0.3,55.5,0.8,76.4,25.2c0.9,1,2.1,1.5,3.4,1.5h48.7c4.9,0,8.9,4,8.9,8.9c0,3.4-2,6.3-4.8,7.8l-1.1,0.5c-1,0.3-1.9,0.6-3,0.6
		h-75.3c-2.5,0-4.4,2-4.4,4.4c0,2.5,2,4.4,4.4,4.4h75.3c0.5,0,0.9-0.2,1.4-0.3c1,0.3,2.1,0.3,3.2-0.1l1.9-0.9
		c0.4-0.1,0.7-0.3,1.1-0.5l64.1-29.9c2.2-1,4.6-1.1,6.8-0.3c2.3,0.8,4,2.4,5,4.6C275.8,207.4,273.9,212.6,269.5,214.8z"/>
</g>
</svg>
