<svg id="Capa_1" enable-background="new 0 0 512 512" height="512" viewBox="0 0 512 512" width="512" xmlns="http://www.w3.org/2000/svg"><g><g><path d="m208 432.99h96v64.01h-96z" fill="#dae6fe"/></g><path d="m256.06 432.99h47.94v64.01h-47.94z" fill="#c0d7fe"/><path d="m512 391.49v51.79h-512v-51.79l256.06-12.07z" fill="#ecf2ff"/><path d="m512 391.49v51.79h-255.94v-63.86z" fill="#dae6fe"/><path d="m135.5 482h241v30h-241z" fill="#ecf2ff"/><path d="m256.06 482h120.44v30h-120.44z" fill="#dae6fe"/><path d="m0 64v327.49h512v-327.49z" fill="#4e5f7f"/><path d="m256.06 64h255.94v327.49h-255.94z" fill="#3e4665"/><path d="m482 94v267.49h-451.88l.01-207.25-.01-60.24z" fill="#c0d7fe"/><path d="m256.06 94h225.94v267.49h-225.94z" fill="#c0d7fe"/><path d="m448 64v257.875h-384v-257.875l192.025-12.69z" fill="#ecf2ff"/><path d="m448 64v257.875h-191.975v-270.565z" fill="#dae6fe"/><path d="m64 0v64h64l9.199-32-9.199-32z" fill="#fd7f49"/><path d="m128 0v64h64.001l9.198-32-9.198-32z" fill="#fede51"/><path d="m192 0h256v64h-256z" fill="#dae6fe"/><path d="m256.025 0h191.975v64h-191.975z" fill="#c0d7fe"/><path d="m295.79 145.98-39.76 85.16-12.64 27.07-27.18-12.69 39.82-85.29 12.58-26.94z" fill="#00ce6d"/><path d="m295.79 145.98-39.76 85.16v-70.91l12.58-26.94z" fill="#009a86"/><path d="m197.692 259.938h-6.503c-21.832 0-39.593-17.762-39.593-39.594 0-5.291-4.304-9.594-9.594-9.594h-6.502v-30h6.502c5.29 0 9.594-4.304 9.594-9.594 0-21.832 17.761-39.593 39.593-39.593h6.503v30h-6.503c-5.29 0-9.593 4.304-9.593 9.593 0 9.285-3.213 17.834-8.585 24.594 5.372 6.759 8.585 15.309 8.585 24.594 0 5.291 4.304 9.594 9.593 9.594h6.503z" fill="#00ce6d"/><path d="m322.752 259.938h-6.502v-30h6.502c5.29 0 9.594-4.304 9.594-9.594 0-9.285 3.213-17.834 8.585-24.594-5.372-6.759-8.585-15.309-8.585-24.594 0-5.29-4.304-9.593-9.594-9.593h-6.502v-30h6.502c21.832 0 39.594 17.761 39.594 39.593 0 5.29 4.304 9.594 9.593 9.594h6.503v30h-6.503c-5.29 0-9.593 4.304-9.593 9.594 0 21.832-17.762 39.594-39.594 39.594z" fill="#009a86"/></g></svg>