<svg width="516" height="505" viewBox="0 0 516 505" fill="none" xmlns="http://www.w3.org/2000/svg">
<g opacity="0.2">
<path d="M515.165 493.902C515.165 493.883 515.146 493.864 515.146 493.827C501.709 478.294 500.095 467.111 499.307 460.502C499.057 460.372 498.845 460.149 498.788 459.889L496.5 451.13C496.385 450.721 496.577 450.293 496.961 450.088C497.134 449.995 497.307 449.884 497.48 449.791C497.865 449.568 498.038 449.103 497.884 448.694C493.617 436.662 435.68 273.497 419.341 249.693C419.207 249.489 419.149 249.266 419.188 249.024C421.994 233.384 434.373 180.273 441.985 163.239C443.254 160.412 444.119 157.437 444.58 154.368C444.849 152.602 445.099 150.835 445.272 149.905C445.33 149.589 445.541 149.329 445.849 149.217C482.948 133.652 544.306 95.8081 492.56 24.4723C492.579 24.3979 492.598 24.3421 492.598 24.3421C492.598 24.3421 494.213 5.61554 484.525 4.05344C474.836 2.49134 471.626 11.8639 470.012 16.5316C468.512 20.8646 482.218 29.1958 486.831 30.4232C487.158 30.5161 487.408 30.7579 487.504 31.074C489.426 37.6758 503.997 94.0601 441.812 101.926C441.735 101.945 441.659 101.945 441.562 101.926C435.046 101.164 424.416 100.141 411.575 99.639C411.095 99.6204 410.71 99.2857 410.634 98.8208L406.078 69.0665C405.982 68.4714 406.462 67.9507 407.077 67.9693C409.288 68.0623 413.056 67.7276 417.765 65.2914C423.513 62.316 421.302 60.0844 419.803 59.1546C419.38 58.8943 419.38 58.2992 419.764 57.983C427.972 51.4929 429.51 43.5894 425.762 40.5396C424.166 39.2379 422.878 39.0519 421.898 39.2936C420.898 39.5354 419.86 38.9403 419.764 37.9361C418.861 29.5119 410.038 24.5095 396.966 22.1849C387.374 20.4741 383.78 17.1453 382.453 15.0811C382.107 14.5418 381.281 14.672 381.108 15.2671C380.916 15.8994 380.031 15.9737 379.724 15.3972C379.262 14.5418 378.148 14.2257 377.302 14.7278C372.323 17.666 369.305 25.5881 373.207 31.7993C374.342 33.6031 376.591 35.221 379.339 36.653C379.781 36.8761 379.993 37.3782 379.801 37.8431C377.417 43.6824 373.592 53.929 373.227 60.2518C372.688 69.4942 370.632 75.5009 381.685 77.3605C381.761 77.3791 381.838 77.3791 381.934 77.3977C382.434 77.4721 382.799 77.9184 382.761 78.4205L380.896 98.8765C380.858 99.3415 380.454 99.7134 379.974 99.732C366.345 100.401 352.101 102.019 338.684 105.162C338.53 105.199 338.376 105.199 338.223 105.162C285.668 93.5022 299.009 41.9901 300.854 35.7231C300.95 35.407 301.2 35.1652 301.527 35.0908C306.14 33.8635 319.827 25.5323 318.347 21.1993C316.732 16.513 313.503 7.15904 303.834 8.72114C294.146 10.2832 295.76 29.0098 295.76 29.0098C295.76 29.0098 295.779 29.0656 295.799 29.14C247.531 95.6408 295.107 131.699 332.494 149.198C332.821 149.347 333.033 149.663 333.052 150.017L333.206 153.55C333.302 155.893 333.667 158.236 334.282 160.505C338.146 174.731 353.158 229.591 361.828 256.128C361.828 256.128 361.905 256.146 362.039 256.165C365.884 279.466 393.795 448.433 394.948 459.312C394.986 459.666 395.217 459.963 395.563 460.093C395.948 460.242 396.505 460.428 397.216 460.633C397.562 460.744 397.831 461.023 397.889 461.376L399.177 468.313C399.273 468.778 398.985 469.243 398.504 469.391C390.142 471.846 371.054 478.188 363.904 486.649C363.423 487.225 362.981 487.802 362.616 488.378C362.251 488.973 362.289 489.662 362.616 490.201L367.006 493.902L396.889 491.707C402.406 491.614 408.384 491.428 414.709 491.075C416.073 491 417.169 489.959 417.246 488.639C417.265 488.397 417.265 488.137 417.265 487.858C417.323 483.99 416.573 476.979 411.633 469.484C411.518 469.317 411.46 469.131 411.479 468.927L411.845 461.841C411.864 461.432 412.171 461.079 412.575 460.967C412.998 460.856 413.421 460.726 413.863 460.595C414.267 460.465 414.536 460.093 414.516 459.666C414.247 450.683 411.383 356.66 405.078 313.665C404.924 312.624 406.366 312.159 406.904 313.07C418.361 332.708 464.033 411.984 480.315 454.793C480.469 455.221 480.93 455.463 481.391 455.407C481.545 455.388 481.718 455.351 481.891 455.333C482.372 455.258 482.833 455.519 482.987 455.946L485.486 462.808C485.582 463.069 485.543 463.329 485.428 463.571C484.486 465.319 486.088 466.999 486.684 470.161C487.779 475.944 488.083 480.327 488.083 488.639L485.428 491.075L473.736 493.902L466.037 496.254L459.039 504.387L500.095 502.214C500.614 502.326 501.152 502.4 501.709 502.419C504.554 502.549 508.245 502.27 511.609 500.671C514.377 499.369 515.761 496.579 515.165 493.902Z" fill="#C3DDFF"/>
<path fill-rule="evenodd" clip-rule="evenodd" d="M151.174 159.461L133.431 110.7C130.227 101.896 109.411 99.3569 109.411 99.3569L55.1802 117.092L0.949519 134.827C0.949519 134.827 -13.7879 148.993 -10.5842 157.797L7.15951 206.558C7.15951 206.558 10.5883 215.288 23.1001 221.301C33.804 226.603 35.4838 231.789 37.0967 236.768L37.0968 236.769C37.3353 237.505 37.5724 238.237 37.8369 238.964C38.6306 241.145 37.4679 245.701 36.0412 251.293C33.7764 260.168 30.8464 271.651 34.0215 280.376L85.3632 421.466C85.3632 421.466 99.9425 460.147 123.795 452.347L219.205 421.145C242.832 413.418 229.378 374.369 229.378 374.369L178.036 233.279C174.861 224.554 165.171 217.198 157.681 211.513C152.962 207.931 149.117 205.012 148.323 202.831C148.059 202.104 147.769 201.389 147.478 200.67C145.51 195.807 143.459 190.742 148.438 180.312C154.071 168.112 151.174 159.461 151.174 159.461ZM73.3972 200.811C70.8196 188.111 77.7899 168.792 77.7899 168.792C77.7899 168.792 95.9919 179.797 102.26 191.279C108.563 202.687 105.517 213.036 95.3821 216.383L95.327 216.402L95.272 216.42C85.137 219.767 75.9544 213.456 73.3972 200.811Z" fill="#C3DDFF"/>
<path d="M64.1423 57.3122L52.8902 60.9939L48.0485 47.6822L59.0756 44.0741C62.9013 42.8223 64.7601 38.932 63.365 35.0964C61.97 31.2608 57.9776 29.2849 54.1519 30.5367L43.1247 34.1448L10.7185 44.7482L-0.30862 48.3563C-4.13435 49.6081 -5.99311 53.4985 -4.59804 57.3341C-3.20298 61.1697 0.78939 63.1455 4.61512 61.8937L15.6422 58.2856L20.4839 71.5974L9.23176 75.2791C-20.474 84.9989 -28.1265 108.963 -28.1265 108.963L-19.0996 133.782L124.703 86.729L115.676 61.9105C115.533 62.2097 93.848 47.5924 64.1423 57.3122Z" fill="#C3DDFF"/>
</g>
</svg>
