<?xml version="1.0" encoding="utf-8"?>
<!-- Generator: Adobe Illustrator 19.1.1, SVG Export Plug-In . SVG Version: 6.00 Build 0)  -->
<svg version="1.1" id="Capa_1" xmlns="http://www.w3.org/2000/svg" xmlns:xlink="http://www.w3.org/1999/xlink" x="0px" y="0px"
	 viewBox="0 0 283.5 336" style="enable-background:new 0 0 283.5 336;" xml:space="preserve">
<style type="text/css">
	.st0{fill:#0087C4;}
	.st1{fill:#CE152F;}
	.st2{fill:#878787;}
</style>
<g>
	<path class="st0" d="M147,52.7V42h34.1c2.9,0,5.3-2.4,5.3-5.2V5.3c0-2.9-2.4-5.3-5.3-5.3h-78.7c-2.9,0-5.2,2.4-5.2,5.3v31.5
		c0,2.9,2.4,5.2,5.2,5.2h34.1v10.8C60.8,55.6,0,117.9,0,194.2C0,272.4,63.6,336,141.7,336c78.2,0,141.7-63.6,141.7-141.7
		C283.5,117.9,222.7,55.6,147,52.7z M133.9,31.5v-21h15.8v21H133.9z M175.9,31.5h-15.8v-21h15.8V31.5z M107.6,10.5h15.8v21h-15.8
		V10.5z M141.7,325.5c-72.4,0-131.2-58.9-131.2-131.2C10.5,121.9,69.4,63,141.7,63S273,121.9,273,194.2
		C273,266.6,214.1,325.5,141.7,325.5z"/>
	<path class="st1" d="M212.3,123.7c-18.9-18.9-43.9-29.2-70.5-29.2V105c23.9,0,46.3,9.3,63.1,26.1c16.8,16.9,26.2,39.3,26.2,63.1
		c0,23.8-9.3,46.2-26.2,63.1c-31.6,31.6-81.1,34.4-116,8.6h2c2.9,0,5.3-2.3,5.3-5.3c0-2.9-2.4-5.3-5.3-5.3H75.1
		c-2.9,0-5.2,2.4-5.2,5.3v15.8c0,2.9,2.3,5.2,5.2,5.2c2.9,0,5.3-2.3,5.3-5.2v-3.7c17.9,14.1,39.6,21.2,61.4,21.2
		c25.5,0,51.1-9.7,70.5-29.1c18.9-18.9,29.2-43.9,29.2-70.5C241.5,167.6,231.1,142.5,212.3,123.7z"/>
	<path class="st2" d="M214.6,57.9l27,16.2c0.8,0.5,1.8,0.8,2.7,0.8c1.8,0,3.5-0.9,4.5-2.6l10.8-18c0.7-1.2,0.9-2.6,0.6-3.9
		c-0.4-1.4-1.2-2.5-2.4-3.2l-27-16.2c-2.5-1.5-5.7-0.7-7.2,1.8l-10.8,18c-0.7,1.2-0.9,2.6-0.6,3.9C212.6,56,213.4,57.2,214.6,57.9z
		 M229.9,42.6l18,10.8l-5.4,9l-18-10.8L229.9,42.6z"/>
	<path class="st0" d="M94.4,246.6c1.3,0,2.7-0.5,3.7-1.5l33-32.9c3.1,1.9,6.7,3,10.6,3c11.6,0,21-9.4,21-21c0-11.6-9.4-21-21-21
		s-21,9.4-21,21c0,3.9,1.1,7.4,2.9,10.6l-33,32.9c-2.1,2-2.1,5.4,0,7.4C91.7,246.1,93,246.6,94.4,246.6z M141.7,183.7
		c5.8,0,10.5,4.7,10.5,10.5c0,5.8-4.7,10.5-10.5,10.5c-5.8,0-10.5-4.7-10.5-10.5C131.2,188.5,136,183.7,141.7,183.7z"/>
</g>
</svg>
