<svg width="40" height="40" viewBox="0 0 40 40" fill="none" xmlns="http://www.w3.org/2000/svg">
<path d="M7.19995 8.1001C4.99995 8.1001 3.19995 6.3001 3.19995 4.1001C3.19995 1.9001 4.99995 0.100098 7.19995 0.100098C9.39995 0.100098 11.2 1.9001 11.2 4.1001C11.2 6.3001 9.39995 8.1001 7.19995 8.1001ZM7.19995 1.7001C5.89995 1.7001 4.89995 2.7001 4.89995 4.0001C4.89995 5.3001 5.99995 6.3001 7.19995 6.3001C8.39995 6.3001 9.59995 5.3001 9.59995 4.0001C9.59995 2.7001 8.49995 1.7001 7.19995 1.7001Z" fill="#828282"/>
<path d="M20 23.9C19.5 23.9 19.2 23.5 19.2 23.1V12.8H14.5V23.1C14.5 23.6 14.1 23.9 13.7 23.9H0.8C0.3 23.9 0 23.5 0 23.1V18.3C0 14.3 3.2 11.1 7.2 11.1H19.1V0.8C19.2 0.4 19.5 0 20 0H39.2C39.6 0 40 0.4 40 0.8V23.1C40 23.6 39.6 23.9 39.2 23.9H20ZM20.8 22.3H38.3V1.7H20.8V11.1H24.7C25.2 11.1 25.5 11.5 25.5 11.9C25.5 12.4 25.1 12.7 24.7 12.7H20.8V22.3ZM7.2 12.8C4.2 12.8 1.7 15.3 1.7 18.3V22.2H12.7V12.8H7.2Z" fill="#828282"/>
<path d="M20 40.0001C16.9 40.0001 14.3 37.4001 14.3 34.3001C14.3 31.2001 16.9 28.6001 20 28.6001C23.1 28.6001 25.7 31.2001 25.7 34.3001C25.7 37.4001 23.1 40.0001 20 40.0001ZM20 30.3001C17.8 30.3001 16 32.1001 16 34.3001C16 36.5001 17.8 38.3001 20 38.3001C22.2 38.3001 24 36.5001 24 34.3001C24 32.1001 22.2 30.3001 20 30.3001Z" fill="#CE152F"/>
<path d="M34.3 40.0001C31.1 40.0001 28.6 37.4001 28.6 34.3001C28.6 31.2001 31.2 28.6001 34.3 28.6001C37.4 28.6001 40 31.2001 40 34.3001C40 37.4001 37.4 40.0001 34.3 40.0001ZM34.3 30.3001C32.1 30.3001 30.3 32.1001 30.3 34.3001C30.3 36.5001 32.1 38.3001 34.3 38.3001C36.5 38.3001 38.3 36.5001 38.3 34.3001C38.3 32.1001 36.5 30.3001 34.3 30.3001Z" fill="#0386C4"/>
<path d="M5.7 40.0001C2.6 40.0001 0 37.4001 0 34.3001C0 31.2001 2.6 28.6001 5.7 28.6001C8.8 28.6001 11.4 31.2001 11.4 34.3001C11.4 37.4001 8.9 40.0001 5.7 40.0001ZM5.7 30.3001C3.5 30.3001 1.7 32.1001 1.7 34.3001C1.7 36.5001 3.5 38.3001 5.7 38.3001C7.9 38.3001 9.7 36.5001 9.7 34.3001C9.7 32.1001 7.9 30.3001 5.7 30.3001Z" fill="#0386C4"/>
</svg>
